<svg xmlns="http://www.w3.org/2000/svg" xmlns:xlink="http://www.w3.org/1999/xlink" width="247.42" height="256.58" viewBox="0 0 247.42 256.58">
    <defs>
        <style>
            .cls-1{opacity:.4}.cls-2{fill:#fff}.cls-3{fill:#bbcee1}.cls-4{fill:#a7bcce}.cls-5{fill:#1c75bc}.cls-6{fill:#0b3b56}.cls-7{fill:#f4c5a2}.cls-8{fill:#fed4bd}.cls-9{fill:#f99840}.cls-10{fill:#e8ebf5}.cls-11{fill:#8444b2}.cls-12{fill:#f0cec9}.cls-13{fill:#fffbf0}.cls-14{fill:#f5ddd8}.cls-15{fill:#dfbab8}.cls-16{fill:url(#linear-gradient)}.cls-17{fill:#933e31}.cls-18{fill:#9d4d36}.cls-19{fill:#2a87c6}.cls-20{fill:#0f4463}.cls-21{fill:#ed5561}.cls-22{fill:#ffbd59}.cls-23{fill:#1b4e6b}.cls-24{fill:#1f5e77}.cls-25{fill:url(#linear-gradient-2)}.cls-26{fill:#f5d012}.cls-27{fill:#edf0f8}.cls-28{fill:#50e85e}.cls-29{fill:#9263c1}.cls-30{fill:#7231a3}.cls-31{fill:#f4767a}.cls-32{fill:#d8395a}.cls-33{fill:#79ff68}.cls-34{fill:#3cc743}.cls-35{fill:#ffa8e1}.cls-36{fill:#ff7ad2}.cls-37{fill:#de64c6}.cls-38{fill:url(#linear-gradient-3)}.cls-39{fill:url(#linear-gradient-4)}.cls-40{fill:url(#linear-gradient-5)}
        </style>
        <linearGradient id="linear-gradient" x1="-476.03" x2="-503.71" y1="181.42" y2="139.74" gradientTransform="translate(632.97)" gradientUnits="userSpaceOnUse">
            <stop offset="0" stop-color="#1c75bc"/>
            <stop offset=".28" stop-color="#2077bc"/>
            <stop offset=".54" stop-color="#2b7ebc"/>
            <stop offset=".8" stop-color="#3e88bc"/>
            <stop offset="1" stop-color="#5394bc"/>
        </linearGradient>
        <linearGradient id="linear-gradient-2" x1="1026.84" x2="1018.37" y1="148.14" y2="-25.2" gradientTransform="matrix(-1 0 0 1 1205.02 0)" xlink:href="#linear-gradient"/>
        <linearGradient id="linear-gradient-3" x1="-.91" x2="13.41" y1="37.18" y2="105.74" xlink:href="#linear-gradient"/>
        <linearGradient id="linear-gradient-4" x1="5.06" x2="19.38" y1="35.93" y2="104.5" xlink:href="#linear-gradient"/>
        <linearGradient id="linear-gradient-5" x1="10.98" x2="25.3" y1="34.69" y2="103.26" xlink:href="#linear-gradient"/>
    </defs>
    <g id="Layer_2" data-name="Layer 2">
        <g id="OBJECTS">
            <g class="cls-1">
                <path d="M94.22 21.89v1.17l4.91 2.83v-1.17l-4.91-2.83zM94.22 24.03v1.16l4.91 2.83v-1.17l-4.91-2.82zM94.22 26.16v1.16l4.91 2.83v-1.16l-4.91-2.83zM131.23 50.8v-1.17l-30.26-17.45v1.17l30.26 17.45zM94.22 28.29v1.17l4.91 2.83v-1.17l-4.91-2.83zM94.22 30.42v1.17l4.91 2.83v-1.17l-4.91-2.83zM131.23 52.94v-1.17l-30.26-17.46v1.17l30.26 17.46zM94.22 36.82v1.17l4.91 2.82v-1.16l-4.91-2.83zM94.22 38.95v1.17l4.91 2.83v-1.17l-4.91-2.83zM94.22 47.48v1.17l4.91 2.83v-1.17l-4.91-2.83zM94.22 49.61v1.17l4.91 2.83v-1.17l-4.91-2.83zM120.06 64.52L100.97 53.5v1.17l19.09 11.01v-1.16zM121.06 65.1v1.16l10.17 5.87v-1.17l-10.17-5.86zM110.56 56.9l-9.59-5.53v1.17l9.59 5.53V56.9zM111.56 57.48v1.17l19.67 11.34v-1.16l-19.67-11.35zM128.64 60.94v1.16l2.59 1.5v-1.17l-2.59-1.49zM114.56 50.69l-13.59-7.85v1.17l13.59 7.84v-1.16zM108.99 30.41l-8.02-4.63v1.17l8.02 4.63v-1.17zM122.15 38L110 30.99v1.17l12.15 7.01V38zM115.07 36.05l-8.56-4.94v1.17l8.56 4.94v-1.17zM124.04 41.23l-7.97-4.6v1.17l7.97 4.59v-1.16zM125.05 41.81v1.16l6.18 3.57v-1.17l-6.18-3.56zM102.55 30.96v1.17l6.44 3.71v-1.16l-6.44-3.72zM128.71 46.05L110 35.26v1.16l18.71 10.8v-1.17zM118 46.27l-12.23-7.05v1.16L118 47.44v-1.17zM128.71 52.45l-9.71-5.6v1.17l9.71 5.59v-1.16zM127.64 58.23l-12.07-6.96v1.16l12.07 6.96v-1.16zM121.06 56.57v1.16l6.58 3.79v-1.16l-6.58-3.79zM103.33 46.34l-2.36-1.37v1.17l2.36 1.37v-1.17z" class="cls-2"/>
                <g>
                    <path d="M107.76 48.9v1.16l12.3 7.09v-1.16l-12.3-7.09zM106.76 48.31l-2.42-1.39v1.17l2.42 1.39v-1.17z" class="cls-2"/>
                </g>
                <path d="M117.78 56.81l-13.44-7.76v1.17l13.44 7.75v-1.16z" class="cls-2"/>
            </g>
            <g class="cls-1">
                <path d="M94.22 56.61v1.17l4.91 2.82v-1.16l-4.91-2.83zM94.22 58.74v1.17l4.91 2.83v-1.17l-4.91-2.83zM94.22 60.87v1.17l4.91 2.83V63.7l-4.91-2.83zM131.23 85.52v-1.17l-30.26-17.46v1.17l30.26 17.46zM94.22 63.01v1.16L99.13 67v-1.17l-4.91-2.82zM94.22 65.14v1.17l4.91 2.82v-1.16l-4.91-2.83zM131.23 87.65v-1.17l-30.26-17.45v1.16l30.26 17.46zM94.22 71.53v1.17l4.91 2.83v-1.17l-4.91-2.83zM94.22 73.67v1.16l4.91 2.83V76.5l-4.91-2.83zM94.22 82.2v1.16l4.91 2.83v-1.16l-4.91-2.83zM94.22 84.33v1.17l4.91 2.82v-1.16l-4.91-2.83zM120.06 99.23l-19.09-11.01v1.17l19.09 11.01v-1.17zM121.06 99.81v1.17l10.17 5.86v-1.17l-10.17-5.86zM110.56 91.62l-9.59-5.53v1.16l9.59 5.54v-1.17zM111.56 92.2v1.17l19.67 11.34v-1.17L111.56 92.2zM128.64 95.65v1.17l2.59 1.49v-1.17l-2.59-1.49zM114.56 85.4l-13.59-7.84v1.16l13.59 7.85V85.4zM108.99 65.13l-8.02-4.63v1.16l8.02 4.64v-1.17zM122.15 72.72L110 65.71v1.17l12.15 7v-1.16zM115.07 70.76l-8.56-4.93V67l8.56 4.93v-1.17zM124.04 75.94l-7.97-4.6v1.17l7.97 4.6v-1.17zM125.05 76.52v1.17l6.18 3.56v-1.16l-6.18-3.57zM102.55 65.67v1.17l6.44 3.72v-1.17l-6.44-3.72zM128.71 80.76L110 69.97v1.17l18.71 10.79v-1.17zM118 80.98l-12.23-7.05v1.17L118 82.15v-1.17zM128.71 87.16l-9.71-5.6v1.17l9.71 5.6v-1.17zM127.64 92.94l-12.07-6.96v1.17l12.07 6.96v-1.17zM121.06 91.28v1.17l6.58 3.79v-1.17l-6.58-3.79zM103.33 81.05l-2.36-1.36v1.17l2.36 1.36v-1.17z" class="cls-2"/>
                <g>
                    <path d="M107.76 83.61v1.17l12.3 7.09V90.7l-12.3-7.09zM106.76 83.03l-2.42-1.4v1.17l2.42 1.4v-1.17z" class="cls-2"/>
                </g>
                <path d="M117.78 91.52l-13.44-7.75v1.16l13.44 7.76v-1.17z" class="cls-2"/>
            </g>
            <path d="M56.96 147.53l21.35-12.35v3L56.95 150.5l.01-2.97z" class="cls-3"/>
            <path d="M58.9 124.02l19.41 11.16-21.35 12.35-19.44-11.18 21.38-12.33z" class="cls-2"/>
            <path d="M37.52 136.35l19.44 11.18-.01 2.97-19.43-11.25v-2.9z" class="cls-4"/>
            <path d="M35.73 111.88l21.36-12.34 4.2 25.89-21.36 12.31-4.2-25.86z" class="cls-3"/>
            <path d="M54.73 98.17l2.36 1.37-21.36 12.34-2.38-1.38 21.38-12.33z" class="cls-2"/>
            <path d="M33.35 110.5l2.38 1.38 4.2 25.86-2.41-1.39-4.17-25.85z" class="cls-4"/>
            <path d="M45.79 135l1.55-2.59 5.57 2.14s-3.17 6.8-5.57 5.5-1.55-5.05-1.55-5.05z" class="cls-5"/>
            <path d="M49.09 98.17l10.63.34 4.09 1.73s.55 4.47 1.44 10.92-.52 23.51-.52 23.51c-4 2-19.53 1.85-19.53 1.85-1-8.16-2.06-34.25-2.06-34.25z" class="cls-6"/>
            <path d="M57 98.42l3.71 3.17c1.6 9.37 1.45 27.68 1.3 35.47-1.36.21-2.9.35-4.45.45-.38-19.47-6.82-38-7.29-39.3z" class="cls-6"/>
            <path d="M58.13 102.76l3.38 1.38-1.32-5.63-1.77-1.21-.29 5.46z" class="cls-5"/>
            <path d="M50.77 95.74l8.17 1.28-.81 5.74-7.89-4.64.53-2.38z" class="cls-7"/>
            <path d="M48.8 90.44c0 4.46 3.24 8.07 7.24 8.07s6.41-3.61 6.41-8.07S60 82.38 56 82.38s-7.2 3.62-7.2 8.06z" class="cls-8"/>
            <path d="M50.06 96.93l8.07 5.83-3.54 3.46-5.5-8.05.97-1.24z" class="cls-5"/>
            <path d="M47.47 86.3a8.7 8.7 0 0 1 8.15-5.44s7.51 0 8.15 9.59A.55.55 0 0 1 63 91a15.62 15.62 0 0 0-3.7-1.6l.35.66s.14.38-.67.32l-3.88-.92a5 5 0 0 1-2.88 3.27s-.3 3.36-1.52 3.89a10.05 10.05 0 0 1-3.23-10.32z" class="cls-9"/>
            <path d="M218.78 175.52l-49.25-28.6a6.75 6.75 0 0 0-6.75 0l-77.6 44.88a3 3 0 0 0 0 5.14l48.17 28a8 8 0 0 0 8 0l77.42-44.78a2.66 2.66 0 0 0 .01-4.64z" class="cls-10"/>
            <path d="M218.78 180.13l-77.42 44.78a8 8 0 0 1-8 0l-48.17-28a2.92 2.92 0 0 1-1.47-2.55v3.75a3 3 0 0 0 1.47 2.51l48.17 28a8 8 0 0 0 8 0l77.42-44.79a2.65 2.65 0 0 0 1.33-2.32v-3.68a2.65 2.65 0 0 1-1.33 2.3z" class="cls-4"/>
            <path d="M218.78 180.13l-77.42 44.78a7.92 7.92 0 0 1-3.66 1.09v3.71a7.92 7.92 0 0 0 3.66-1l77.42-44.79a2.65 2.65 0 0 0 1.33-2.32v-3.68a2.65 2.65 0 0 1-1.33 2.21z" class="cls-3"/>
            <path d="M160.06 162.09l22.16 12.55 14.12-8.17-22.15-12.55-14.13 8.17z" class="cls-11"/>
            <path d="M177.88 174.34v.49l-22.15-12.68v-.36l22.15 12.55z" class="cls-12"/>
            <path d="M155.73 161.79l22.15 12.55 14.12-8.17-22.15-12.55-14.12 8.17z" class="cls-13"/>
            <path d="M177.88 174.34v.49l14.12-8.17v-.49l-14.12 8.17z" class="cls-14"/>
            <path d="M170 154.96l-8.53 4.92.37.21 8.54-4.91-.38-.22zM170.89 155.47l-8.53 4.91.37.22 8.53-4.92-.37-.21zM172.95 156.63l-11.75 6.78.38.22 11.74-6.79-.37-.21zM173.76 157.09l-11.74 6.79.37.21 11.75-6.78-.38-.22zM174.58 157.56l-11.75 6.78.37.21 11.75-6.78-.37-.21zM175.39 158.02l-11.75 6.78.38.21 11.74-6.78-.37-.21zM176.2 158.48l-11.74 6.78.37.21 11.75-6.78-.38-.21zM177.01 158.94l-11.74 6.78.37.21 11.75-6.78-.38-.21zM177.83 159.4l-11.75 6.78.38.21 11.74-6.78-.37-.21zM178.64 159.86l-11.74 6.78.37.21 11.74-6.78-.37-.21zM179.46 160.32l-11.75 6.78.37.22 11.75-6.78-.37-.22zM180.27 160.79l-11.75 6.78.38.21 11.74-6.78-.37-.21zM181.08 161.25l-11.75 6.78.38.21 11.75-6.78-.38-.21zM181.89 161.71l-11.74 6.78.37.21 11.75-6.78-.38-.21zM182.71 162.17l-11.75 6.78.37.21 11.75-6.78-.37-.21zM183.52 162.63l-11.75 6.78.38.21 11.74-6.78-.37-.21zM184.33 163.09l-11.74 6.78.37.22 11.75-6.78-.38-.22z" class="cls-15"/>
            <path d="M185.49 184.76l-21.09-12.19a1.86 1.86 0 0 0-1.88 0l-30.62 17.67a.83.83 0 0 0 0 1.44l20.79 12a2.24 2.24 0 0 0 2.24 0l30.56-17.65a.74.74 0 0 0 0-1.27z" class="cls-2"/>
            <path d="M185.49 186.05l-30.56 17.65a2.24 2.24 0 0 1-2.24 0l-20.79-12a.81.81 0 0 1-.41-.72v1.47a.81.81 0 0 0 .41.7l20.79 12a2.22 2.22 0 0 0 2.24 0l30.56-17.65a.71.71 0 0 0 .37-.65v-1.46a.72.72 0 0 1-.37.66z" class="cls-3"/>
            <path d="M130.64 162.21L162 144.13a.58.58 0 0 1 .62 0l.8.45-.64.86-.23.27v25a1 1 0 0 1-.51.89l-29.79 17.19-.05.26-.95 1.33-.89-.52a.46.46 0 0 1-.22-.4v-26.33a1.06 1.06 0 0 1 .5-.92z" class="cls-2"/>
            <path d="M131.53 162.73L163 144.6a.46.46 0 0 1 .69.4v26.38a1 1 0 0 1-.52.89L131.7 190.4a.46.46 0 0 1-.7-.4v-26.36a1 1 0 0 1 .53-.91z" class="cls-3"/>
            <path d="M132.02 164.32l30.85-17.91v23.55l-30.86 17.86.01-23.5z" class="cls-16"/>
            <g>
                <path d="M165.06 175.56l-1.56-.9-1.76 1.02 1.55.9 1.77-1.02zM162.85 176.83l-1.55-.9-1.76 1.02 1.55.89 1.76-1.01zM160.65 178.1l-1.55-.9-1.76 1.01 1.54.9 1.77-1.01zM158.45 179.36l-1.55-.9-1.77 1.02 1.55.9 1.77-1.02zM156.25 180.63l-1.55-.9-1.77 1.02 1.55.9 1.77-1.02zM154.05 181.9l-1.55-.9-1.77 1.01 1.55.9 1.77-1.01zM151.85 183.16l-1.55-.9-1.77 1.02 1.55.9 1.77-1.02zM149.65 184.43l-1.56-.9-1.76 1.02 1.55.9 1.77-1.02zM147.45 185.7l-1.56-.9-1.76 1.02 1.55.89 1.77-1.01zM145.25 186.97l-1.56-.91-1.76 1.02 1.55.9 1.77-1.01zM143.04 188.23l-1.55-.9-1.76 1.02 1.55.9 1.76-1.02zM140.84 189.5l-1.55-.9-1.76 1.02 1.54.89 1.77-1.01zM137.09 189.87l-1.77 1.01 1.55.9 1.77-1.01-1.55-.9zM165.29 177.74l1.77-1.01-1.55-.9-1.76 1.01 1.54.9zM161.55 178.11l1.54.9 1.77-1.02-1.55-.9-1.76 1.02zM159.34 179.38l1.55.9 1.77-1.02-1.55-.9-1.77 1.02zM157.14 180.64l1.55.9 1.77-1.01-1.55-.9-1.77 1.01zM154.94 181.91l1.55.9 1.77-1.02-1.55-.9-1.77 1.02zM152.74 183.18l1.55.9 1.77-1.02-1.55-.9-1.77 1.02zM150.54 184.45l1.55.89 1.77-1.01-1.55-.9-1.77 1.02zM148.34 185.71l1.55.9 1.77-1.01-1.56-.91-1.76 1.02zM146.14 186.98l1.55.9 1.77-1.02-1.56-.9-1.76 1.02zM143.94 188.25l1.55.9 1.76-1.02-1.55-.9-1.76 1.02zM141.74 189.51l1.54.9 1.77-1.01-1.55-.9-1.76 1.01zM139.53 190.78l1.55.9 1.77-1.02-1.55-.9-1.77 1.02zM139.1 191.03l-1.77 1.02 1.55.9 1.77-1.02-1.55-.9zM167.3 178.91l1.77-1.02-1.55-.9-1.76 1.02 1.54.9zM163.56 179.27l1.54.9 1.77-1.01-1.55-.9-1.76 1.01zM164.67 180.42l-1.55-.9-1.77 1.02 1.55.9 1.77-1.02zM159.15 181.81l1.55.9 1.77-1.02-1.55-.9-1.77 1.02zM156.95 183.07l1.55.9 1.77-1.01-1.55-.9-1.77 1.01zM154.75 184.34l1.55.9 1.77-1.02-1.56-.9-1.76 1.02zM152.55 185.61l1.55.9 1.77-1.02-1.56-.9-1.76 1.02zM150.35 186.88l1.55.89 1.77-1.01-1.56-.9-1.76 1.02zM148.15 188.14l1.54.9 1.77-1.01-1.55-.9-1.76 1.01zM145.95 189.41l1.54.9 1.77-1.02-1.55-.9-1.76 1.02zM143.75 190.68l1.54.89 1.77-1.01-1.55-.9-1.76 1.02zM144.86 191.83l-1.55-.9-1.77 1.01 1.55.9 1.77-1.01zM141.11 192.19l-1.77 1.02 1.55.9 1.77-1.02-1.55-.9zM169.31 180.07l1.77-1.02-1.55-.9-1.76 1.02 1.54.9zM168.88 180.32l-1.55-.9-1.77 1.02 1.55.9 1.77-1.02zM166.68 181.59l-1.55-.9-1.77 1.02 1.55.89 1.77-1.01zM164.48 182.85l-1.55-.9-1.77 1.02 1.55.9 1.77-1.02zM162.28 184.12l-1.56-.9-1.76 1.02 1.55.9 1.77-1.02zM160.08 185.39l-1.56-.9-1.76 1.02 1.55.89 1.77-1.01zM157.88 186.66l-1.56-.91-1.76 1.02 1.55.9 1.77-1.01zM155.68 187.92l-1.56-.9-1.76 1.02 1.55.9 1.77-1.02zM153.47 189.19l-1.55-.9-1.76 1.02 1.54.9 1.77-1.02zM151.27 190.46l-1.55-.9-1.76 1.01 1.54.9 1.77-1.01zM149.07 191.72l-1.55-.9-1.77 1.02 1.55.9 1.77-1.02zM146.87 192.99l-1.55-.9-1.77 1.02 1.55.9 1.77-1.02zM143.12 193.36l-1.77 1.02 1.55.89 1.77-1.01-1.55-.9zM171.32 181.23l1.77-1.01-1.55-.9-1.76 1.02 1.54.89zM170.89 181.49l-1.55-.91-1.77 1.02 1.55.9 1.77-1.01zM168.69 182.75l-1.55-.9-1.77 1.02 1.55.9 1.77-1.02zM166.49 184.02l-1.55-.9-1.77 1.02 1.55.89 1.77-1.01zM164.29 185.29l-1.55-.91-1.77 1.02 1.55.9 1.77-1.01zM162.09 186.55l-1.56-.9-1.76 1.02 1.55.9 1.77-1.02zM159.88 187.82l-1.55-.9-1.76 1.02 1.55.9 1.76-1.02zM157.68 189.09l-1.55-.9-1.76 1.01 1.54.9 1.77-1.01zM155.48 190.35l-1.55-.9-1.77 1.02 1.55.9 1.77-1.02zM153.28 191.62l-1.55-.9-1.77 1.02 1.55.9 1.77-1.02zM151.08 192.89l-1.55-.9-1.77 1.01 1.55.9 1.77-1.01zM148.88 194.16l-1.55-.91-1.77 1.02 1.55.9 1.77-1.01zM145.13 194.52l-1.77 1.02 1.55.9 1.77-1.02-1.55-.9zM173.55 180.48l-1.77 1.02 1.55.9 1.77-1.02-1.55-.9zM169.58 182.76l1.55.9 1.77-1.01-1.55-.9-1.77 1.01zM167.38 184.03l1.55.9 1.77-1.01-1.55-.91-1.77 1.02zM165.18 185.3l1.55.9 1.77-1.02-1.56-.9-1.76 1.02zM162.98 186.57l1.55.9 1.77-1.02-1.56-.9-1.76 1.02zM160.78 187.83l1.55.9 1.76-1.01-1.55-.9-1.76 1.01zM160.34 188.08l-2.2 1.27-.43.25-1.77 1.02-.9.51-1.3.75-1.39.81-2.58 1.48 1.55.9 2.69-1.55 1.28-.74 1.34-.77.86-.49 1.74-1 .46-.27 2.2-1.27-1.55-.9zM147.57 195.44l1.55.89 1.77-1.01-1.55-.9-1.77 1.02zM145.37 196.7l1.55.9 1.77-1.01-1.56-.9-1.76 1.01z" class="cls-3"/>
            </g>
            <path d="M172.85 191l-5.54-3.19a.44.44 0 0 0-.47 0l-7.68 4.43a.21.21 0 0 0 0 .36l5.46 3.15a.56.56 0 0 0 .56 0l7.67-4.42a.19.19 0 0 0 0-.33z" class="cls-3"/>
            <g>
                <path d="M94.74 227.39l-.01-2.07-.01 1.92.01 2.07.01-1.92zM113.78 229.88l-2.53 1.47v1.92l2.52-1.47.01-1.92zM84.44 231.35l-2.54-1.47v1.92l2.54 1.47v-1.92zM89.82 238l.06-.21a2.17 2.17 0 0 1 .07-.24 1.67 1.67 0 0 1 .08-.2c0-.08.07-.17.12-.25a1.74 1.74 0 0 1 .11-.18c.06-.09.12-.19.19-.28a1 1 0 0 1 .13-.16 3.92 3.92 0 0 1 .34-.37l.13-.13.25-.21.23-.18a2.9 2.9 0 0 1 .29-.19 3.28 3.28 0 0 1 .31-.2c.24-.14.5-.27.76-.39l.23-.1.64-.24.23-.08.42-.12.32-.08.44-.1.31-.06.92-.13h2.79l.4.05h.36l.43.08.34.06.5.13.28.07c.29.09.58.18.86.29l.41.18.21.09c.21.1.41.2.6.31 1.59.92 2.39 2.13 2.39 3.33v-1.91c0-1.21-.79-2.42-2.39-3.34-.19-.11-.39-.21-.59-.31l-.21-.09-.36-.16q-.42-.16-.87-.3h-.27l-.51-.12h-.33l-.43-.08h-.77L99 232h-2.59c-.31 0-.62.07-.92.12l-.26.06-.45.09-.31.09a4.21 4.21 0 0 0-.42.12h-.09l-.15.06q-.32.1-.63.24l-.23.1c-.27.12-.52.24-.77.38l-.1.06-.2.14-.3.19-.22.18-.25.21-.08.09a4 4 0 0 0-.35.37l-.07.08-.06.08-.19.28s-.06.08-.08.12v.06c0 .09-.08.17-.11.26a.46.46 0 0 0-.07.14v.05a1.82 1.82 0 0 0-.07.25v.16a2.3 2.3 0 0 0 0 .26v2.16a1.94 1.94 0 0 1 0-.24 2.11 2.11 0 0 1-.21-.16zM113.76 238.37c0 .12-.08.23-.13.35a1.6 1.6 0 0 1-.1.23 1.47 1.47 0 0 1-.1.22l-.12.23-.12.22-.16.26-.13.2-.2.27-.13.18c-.13.16-.27.33-.42.49l-.07.06q-.19.21-.42.42a3.59 3.59 0 0 1-.35.32v1.92l.29-.26.06-.06c.15-.14.28-.28.42-.42l.06-.06c.15-.17.29-.33.42-.5l.1-.14a1.85 1.85 0 0 0 .19-.27 2.14 2.14 0 0 0 .13-.19c.06-.09.12-.18.17-.27a.22.22 0 0 1 0-.08.54.54 0 0 1 .07-.13 2.4 2.4 0 0 0 .11-.23c0-.07.07-.15.11-.22l.09-.23a.54.54 0 0 0 0-.11 2.25 2.25 0 0 0 .08-.24h3.58v-1.92zM84.5 243.74v-1.92a8 8 0 0 1-2.5-3.45h-3.56v1.92H82a8 8 0 0 0 2.5 3.45z" class="cls-4"/>
                <path d="M107 244.35c-.43.17-.87.32-1.32.46l-.76.22-.71.19c-.25.07-.52.12-.78.17l-.73.15c-.54.1-1.09.18-1.64.24v1.92c.55-.07 1.1-.15 1.64-.24h.08l.66-.14.78-.17.71-.2c.25-.07.51-.13.75-.21h.09c.42-.14.83-.28 1.23-.44l2.54 1.46 4.35-2.53v-1.91l-4.35 2.53zM94.84 245.78c-.39 0-.77-.1-1.15-.16s-.55-.09-.82-.15l-.71-.14c-.32-.07-.64-.15-1-.24l-.75-.2-.32-.1c-.43-.14-.85-.28-1.26-.44l-2.52 1.47-4.31-2.53v1.92l4.38 2.53 2.53-1.47c.4.16.82.3 1.25.44l.33.1.32.1.42.1 1 .24.31.07.39.07.82.14.38.07.77.1v2.07h6.1v-1.92h-6.15z" class="cls-4"/>
                <path d="M109.5 245.82l-2.5-1.47a23.25 23.25 0 0 1-5.94 1.43v2.07h-6.21v-2.07a23.41 23.41 0 0 1-6-1.43l-2.52 1.47-4.33-2.53 2.52-1.47a8 8 0 0 1-2.52-3.45h-3.56v-3.57H82a7.77 7.77 0 0 1 2.44-3.45l-2.54-1.47 4.36-2.52 2.53 1.46a24.09 24.09 0 0 1 5.95-1.43v-2.07h6.17v2.07a24.17 24.17 0 0 1 6 1.43l2.52-1.46 4.38 2.52-2.52 1.47a8 8 0 0 1 2.49 3.45h3.58v3.57h-3.58a7.79 7.79 0 0 1-2.45 3.45l2.54 1.47zm-17.33-5.92a12.6 12.6 0 0 0 11.45 0c3.15-1.83 3.13-4.8 0-6.63a12.63 12.63 0 0 0-11.45 0c-3.15 1.83-3.13 4.8 0 6.63" class="cls-2"/>
            </g>
            <g>
                <path d="M62.41 223.6l-.01-1.69v1.57l.01 1.69v-1.57zM77.96 225.64l-2.06 1.2v1.56l2.06-1.19v-1.57zM54 226.84l-2.08-1.2v1.57l2.07 1.19.01-1.56zM58.4 232.26a1.36 1.36 0 0 1 0-.17c0-.06 0-.13.05-.19s0-.11.07-.17.06-.13.1-.2l.09-.15.15-.23.14-.15a4 4 0 0 1 .28-.3 1.14 1.14 0 0 1 .11-.11l.2-.17.19-.15.24-.15.25-.17.62-.31.19-.08.52-.2.19-.06.34-.1.26-.07.36-.08h.26c.24 0 .49-.08.75-.1h.23a3.4 3.4 0 0 1 .45 0h2.22l.35.06h.27l.41.1.23.07.71.23.33.15.18.07c.16.08.33.16.48.25a3.31 3.31 0 0 1 2 2.73v-1.57a3.31 3.31 0 0 0-2-2.72 4.52 4.52 0 0 0-.49-.25l-.17-.08-.3-.13c-.23-.09-.47-.17-.71-.24h-.23l-.41-.1h-.28l-.35-.06h-2.95l-.75.1h-.21l-.37.08-.25.07-.35.1h-.19l-.52.19-.18.08a6.19 6.19 0 0 0-.63.32l-.08.05-.17.11-.24.16-.18.14-.21.17-.06.07a4 4 0 0 0-.29.3l-.06.07v.06l-.16.24-.06.09v.05l-.09.21-.06.12-.06.2v.13a1.49 1.49 0 0 0 0 .21.59.59 0 0 0 0 .13V232.34a1.52 1.52 0 0 1-.16-.08zM78 232.58c0 .09-.07.18-.11.28a1.54 1.54 0 0 1-.08.19 1.42 1.42 0 0 1-.08.18 1.74 1.74 0 0 1-.1.19l-.09.17-.14.22-.1.16-.16.22-.11.15-.35.4c-.11.12-.22.23-.34.34l-.29.26V237l.24-.21v-.05l.34-.34.06-.06c.12-.13.23-.26.34-.4a1 1 0 0 1 .08-.11l.16-.23.11-.16.13-.21v-.18l.1-.18.08-.18.08-.2v-.08l.06-.2h2.93v-1.56zM54 237v-1.57a6.4 6.4 0 0 1-2-2.81h-2.91v1.56H52a6.56 6.56 0 0 0 2 2.82z" class="cls-4"/>
                <path d="M72.4 237.46c-.36.14-.72.26-1.08.38l-.62.17-.58.16-.64.14-.6.12c-.44.08-.89.15-1.34.2v1.56c.46-.05.9-.11 1.35-.19h.06l.54-.12.63-.13.59-.16c.2-.06.41-.11.61-.18h.07c.35-.11.68-.23 1-.35l2.07 1.19 3.54-2.09v-1.57l-3.55 2.07zM62.49 238.63l-.94-.14-.67-.11-.57-.12-.79-.19-.6-.17-.27-.08q-.52-.16-1-.36l-2.07 1.2-3.58-2.07v1.57l3.58 2.06 2.04-1.22c.33.13.68.24 1 .35l.26.09.27.08.34.08c.26.07.52.14.78.19l.26.07.32.05c.22.05.44.08.67.12l.3.05.64.08v1.7h5v-1.57h-5z" class="cls-4"/>
                <path d="M74.47 238.66l-2.07-1.2a19.09 19.09 0 0 1-4.86 1.17v1.69h-5v-1.69a19.17 19.17 0 0 1-4.87-1.17l-2.06 1.2-3.61-2.07 2.07-1.2a6.4 6.4 0 0 1-2-2.81h-2.98v-2.93H52a6.37 6.37 0 0 1 2-2.81l-2.08-1.2 3.56-2.07 2.07 1.2a20 20 0 0 1 4.86-1.17v-1.69h5v1.69a19.94 19.94 0 0 1 4.87 1.17l2.06-1.2 3.66 2.07-2.06 1.2a6.45 6.45 0 0 1 2 2.81h2.93v2.93H78a6.39 6.39 0 0 1-2 2.81l2.07 1.2zm-14.16-4.83a10.31 10.31 0 0 0 9.35 0c2.58-1.49 2.57-3.92 0-5.41a10.3 10.3 0 0 0-9.36 0c-2.57 1.49-2.56 3.92 0 5.42" class="cls-2"/>
            </g>
            <path d="M175.18 243.89c3.1 0 2.08-2.33 2.08-2.33 4.62-1.41 6.88-.63 6.88-.63a21.49 21.49 0 0 1 .74 7.51c0 .49-.34.78-.8.95a18.23 18.23 0 0 1-9.35 1.09c-3.4-.33-7-3.48-6.18-6.71.51-2.02 3.45.09 6.63.12z" class="cls-17"/>
            <path d="M176.51 214.68a4.44 4.44 0 0 1 5.06-1.52l27.78 5.36-1 7.14a11.08 11.08 0 0 1-11.71 3.48 43.44 43.44 0 0 1-12.28-5.61l.94 19.69a11.08 11.08 0 0 1-8.24-1c-.65-.39-1.26-19.38-1.46-24.25a4.46 4.46 0 0 1 .91-3.29z" class="cls-5"/>
            <path d="M161.84 249.58c3.23 0 2.17-2.42 2.17-2.42 4.79-1.46 7.14-.64 7.14-.64a22 22 0 0 1 .76 7.79c0 .5-.35.81-.82 1a19 19 0 0 1-9.72 1.13c-3.53-.35-7.26-3.62-6.41-7 .53-2.07 3.61.11 6.88.14z" class="cls-18"/>
            <g>
                <path d="M193.42 241.75l23.84-13.78v3.35l-23.85 13.75.01-3.32z" class="cls-3"/>
                <path d="M195.59 215.51l21.67 12.46-23.84 13.78-21.71-12.47 23.88-13.77z" class="cls-2"/>
                <path d="M171.71 229.28l21.71 12.47-.01 3.32-21.7-12.55v-3.24z" class="cls-4"/>
            </g>
            <path d="M163.22 219.25a4.62 4.62 0 0 1 5.26-1.57l28.85 5.57-1.09 7.41a11.5 11.5 0 0 1-12.15 3.61 45.19 45.19 0 0 1-12.76-5.82l1 20.44a11.46 11.46 0 0 1-8.56-1c-.67-.4-1.3-20.12-1.51-25.18a4.68 4.68 0 0 1 .96-3.46z" class="cls-19"/>
            <path d="M186.05 175.46c.48 4.84 4.06 8.46 8 8.07s6.73-4.63 6.25-9.47-4-8.46-8-8.08-6.72 4.63-6.25 9.48z" class="cls-8"/>
            <path d="M180.18 186.75s-1.71.41-2.3.47-2.84.53-3.75.25.8-.89 1.23-1.2.4-1.11-.52-1.39a40 40 0 0 0-4.13-.3c-1.11-.16 1.1-3.52 2.9-3.83a7.65 7.65 0 0 1 4.95.67c1.54.76 2.38 2 3.1 2.29z" class="cls-7"/>
            <path d="M180 182.18l11.68 2.93.59 7.42-13.8-4.73c-.29-2.62 1.53-5.62 1.53-5.62zM208.8 185.32s3.24 4.07 0 9.68c0 0-2.26 3.12-8.46.06z" class="cls-20"/>
            <path d="M199.23 180.56a15.68 15.68 0 0 0-9 2.42 3 3 0 0 1-1.08 1.36c-.8.53-4.71 2.1-4.71 2.1s1.72 23-.26 34.2c0 0 8.52 6.65 21.81 0 0 0 1.95-28.24 2.8-35.32.01 0-2.2-2.74-9.56-4.76z" class="cls-6"/>
            <g>
                <path d="M201.44 218.53l23.85-13.78-8.03 23.25-23.85 13.75 8.03-23.22z" class="cls-3"/>
                <path d="M222.66 203.22l2.63 1.53-23.85 13.78-2.66-1.54 23.88-13.77z" class="cls-2"/>
                <path d="M198.78 216.98l2.66 1.55-8.03 23.22-2.69-1.55 8.06-23.22z" class="cls-4"/>
            </g>
            <path d="M164.47 196.94s-1.3-1.31-1.8-1.69-2.25-2-3.23-2.24.7 1.48.9 2-1-.43-1.92-.77a4.47 4.47 0 0 0-3.13.1c-2.26.81-2.15 5.32-.3 4.79 3-.88 4.4 1.53 6.21 2a18 18 0 0 0 2.57.47z" class="cls-7"/>
            <path d="M184.45 186.44l-9.87 13.06-10.25-3s-2.19 2.77-1.48 5.71l13.68 5.32 11.11-12.23s3.73-7.77-3.19-8.86zM190.18 162s-.76 1.82 2.87 2.31 8.11 2.3 9.29 6.13c.76 2.45-.12 5.07-1.35 7.21a13.7 13.7 0 0 1-1.44 2.1 7.86 7.86 0 0 1-5.35-.92 9.25 9.25 0 0 1-2.88-3.51s-2.16.9-2.83-.9c-.5-1.32-2.06-1.65-2.91-2.38 0-.04-4.9-8.04 4.6-10.04z" class="cls-20"/>
            <g>
                <path d="M138.3 203h-1.85v2h1.85a1.25 1.25 0 0 1 1.25 1.25v3.25a1.25 1.25 0 0 1-1.25 1.24h-2.72v2h2.72a3.24 3.24 0 0 0 3.24-3.24v-3.25a3.24 3.24 0 0 0-3.24-3.25z" class="cls-4"/>
                <path d="M137.6 201.89v11.25c0 1.74-2.6 3.15-5.8 3.15s-5.81-1.41-5.81-3.15v-11.25z" class="cls-3"/>
                <path d="M126 201.89c0 1.74 2.6 3.16 5.81 3.16s5.8-1.42 5.8-3.16-2.6-3.15-5.8-3.15-5.81 1.41-5.81 3.15z" class="cls-2"/>
                <path d="M127.15 201.85c0 1.37 2.08 2.47 4.65 2.47s4.65-1.1 4.65-2.47-2.08-2.47-4.65-2.47-4.65 1.11-4.65 2.47z" class="cls-4"/>
                <ellipse cx="131.8" cy="202.66" class="cls-18" rx="4.39" ry="1.66"/>
                <path d="M134 204.81v11.25a6.35 6.35 0 0 0 2.74-1.26v-11.25a6.23 6.23 0 0 1-2.74 1.26z" class="cls-4"/>
            </g>
            <g>
                <path d="M154 138.06l-49.26-28.6a6.75 6.75 0 0 0-6.75 0l-77.55 44.88a3 3 0 0 0 0 5.14l48.16 28a8 8 0 0 0 8 0l77.4-44.81a2.66 2.66 0 0 0 0-4.61z" class="cls-10"/>
                <path d="M154 142.67l-77.38 44.78a8 8 0 0 1-8 0l-48.16-28a3 3 0 0 1-1.46-2.52v3.75a2.92 2.92 0 0 0 1.47 2.51l48.16 28a8 8 0 0 0 8 0L154 146.37a2.61 2.61 0 0 0 1.33-2.32v-3.68a2.63 2.63 0 0 1-1.33 2.3z" class="cls-4"/>
                <path d="M154 142.67l-77.38 44.78A7.92 7.92 0 0 1 73 188.5v3.71a7.92 7.92 0 0 0 3.67-1.05L154 146.37a2.61 2.61 0 0 0 1.33-2.32v-3.68a2.63 2.63 0 0 1-1.33 2.3z" class="cls-3"/>
                <path d="M106.81 138.85l-21.09-12.19a1.88 1.88 0 0 0-1.89 0l-30.61 17.67a.82.82 0 0 0 0 1.43l20.79 12a2.24 2.24 0 0 0 2.24 0l30.57-17.64a.75.75 0 0 0-.01-1.27z" class="cls-2"/>
                <path d="M106.81 140.14l-30.57 17.64a2.24 2.24 0 0 1-2.24 0l-20.79-12a.82.82 0 0 1-.41-.71v1.46a.81.81 0 0 0 .41.7l20.79 12a2.24 2.24 0 0 0 2.24 0l30.57-17.64a.75.75 0 0 0 .37-.65v-1.44a.75.75 0 0 1-.37.64zM93.03 134.13l-1.55-.9-1.77 1.02 1.55.9 1.77-1.02zM90.83 135.4l-1.55-.9-1.77 1.02 1.55.9 1.77-1.02zM88.63 136.67l-1.56-.9-1.76 1.01 1.55.9 1.77-1.01zM86.43 137.94l-1.56-.91-1.76 1.02 1.55.9 1.77-1.01zM84.22 139.2l-1.55-.9-1.76 1.02 1.54.9 1.77-1.02zM82.02 140.47l-1.55-.9-1.76 1.02 1.54.89 1.77-1.01z" class="cls-3"/>
                <path d="M79.82 141.74l-1.55-.9-1.77 1.01 1.55.9 1.77-1.01zM77.62 143l-1.55-.9-1.77 1.02 1.55.9 1.77-1.02zM75.42 144.27l-1.55-.9-1.77 1.02 1.55.89 1.77-1.01zM73.22 145.54l-1.55-.9-1.77 1.01 1.55.9 1.77-1.01zM71.02 146.8l-1.55-.9-1.77 1.02 1.55.9 1.77-1.02zM68.82 148.07l-1.56-.9-1.76 1.02 1.55.9 1.77-1.02zM65.06 148.44l-1.76 1.02 1.55.89 1.76-1.01-1.55-.9zM93.27 136.31l1.77-1.01-1.55-.9-1.77 1.01 1.55.9zM89.52 136.68l1.55.9 1.77-1.02-1.56-.9-1.76 1.02zM87.32 137.95l1.55.9 1.77-1.02-1.56-.9-1.76 1.02zM85.12 139.22l1.55.89 1.77-1.01-1.56-.9-1.76 1.02zM82.92 140.48l1.54.9 1.77-1.01-1.55-.9-1.76 1.01zM80.72 141.75l1.54.9 1.77-1.02-1.55-.9-1.76 1.02zM78.51 143.02l1.55.89 1.77-1.01-1.55-.9-1.77 1.02zM76.31 144.28l1.55.9 1.77-1.01-1.55-.9-1.77 1.01zM74.11 145.55l1.55.9 1.77-1.02-1.55-.9-1.77 1.02zM71.91 146.82l1.55.9 1.77-1.02-1.56-.9-1.76 1.02zM69.71 148.09l1.55.89 1.77-1.01-1.56-.9-1.76 1.02zM67.51 149.35l1.55.9 1.77-1.01-1.56-.9-1.76 1.01zM67.07 149.6l-1.76 1.02 1.55.9 1.76-1.02-1.55-.9zM95.28 137.48l1.77-1.02-1.55-.9-1.77 1.02 1.55.9zM91.53 137.85l1.55.89 1.77-1.01-1.56-.9-1.76 1.02zM92.64 139l-1.55-.91-1.76 1.02 1.55.9 1.76-1.01zM87.13 140.38l1.54.9 1.77-1.02-1.55-.9-1.76 1.02zM84.92 141.65l1.55.89 1.77-1.01-1.55-.9-1.77 1.02zM82.72 142.91l1.55.9 1.77-1.01-1.55-.9-1.77 1.01zM80.52 144.18l1.55.9 1.77-1.02-1.55-.9-1.77 1.02zM78.32 145.45l1.55.9 1.77-1.02-1.55-.9-1.77 1.02zM76.12 146.72l1.55.89 1.77-1.01-1.55-.9-1.77 1.02zM73.92 147.98l1.55.9 1.77-1.01-1.56-.91-1.76 1.02zM71.72 149.25l1.55.9 1.77-1.02-1.56-.9-1.76 1.02zM72.83 150.4l-1.55-.9-1.76 1.02 1.54.89 1.77-1.01zM69.08 150.76l-1.76 1.02 1.54.9 1.77-1.01-1.55-.91zM97.29 138.64l1.77-1.01-1.56-.91-1.76 1.02 1.55.9zM96.86 138.89l-1.56-.9-1.76 1.02 1.55.9 1.77-1.02zM94.65 140.16l-1.55-.9-1.76 1.02 1.55.9 1.76-1.02zM92.45 141.43l-1.55-.9-1.76 1.01 1.54.9 1.77-1.01zM90.25 142.69l-1.55-.9-1.76 1.02 1.54.9 1.77-1.02zM88.05 143.96l-1.55-.9-1.77 1.02 1.55.9 1.77-1.02zM85.85 145.23l-1.55-.9-1.77 1.01 1.55.9 1.77-1.01zM83.65 146.5l-1.55-.91-1.77 1.02 1.55.9 1.77-1.01zM81.45 147.76l-1.56-.9-1.76 1.02 1.55.9 1.77-1.02zM79.25 149.03l-1.56-.9-1.76 1.02 1.55.89 1.77-1.01zM77.05 150.3l-1.56-.9-1.76 1.01 1.55.9 1.77-1.01zM74.84 151.56l-1.55-.9-1.76 1.02 1.54.9 1.77-1.02zM71.09 151.93l-1.76 1.02 1.54.89 1.77-1.01-1.55-.9zM99.3 139.8l1.77-1.01-1.56-.9-1.76 1.02 1.55.89zM98.86 140.06l-1.55-.9-1.76 1.01 1.54.9 1.77-1.01zM96.66 141.32l-1.55-.9-1.76 1.02 1.54.9 1.77-1.02zM94.46 142.59l-1.55-.9-1.77 1.02 1.55.89 1.77-1.01zM92.26 143.86l-1.55-.9-1.77 1.01 1.55.9 1.77-1.01zM90.06 145.13l-1.55-.91-1.77 1.02 1.55.9 1.77-1.01zM87.86 146.39l-1.55-.9-1.77 1.02 1.55.9 1.77-1.02zM85.66 147.66l-1.55-.9-1.77 1.02 1.55.89 1.77-1.01zM83.46 148.93l-1.56-.9-1.76 1.01 1.55.9 1.77-1.01zM81.25 150.19l-1.55-.9-1.76 1.02 1.55.9 1.76-1.02zM79.05 151.46l-1.55-.9-1.76 1.02 1.54.89 1.77-1.01zM76.85 152.73l-1.55-.9-1.77 1.01 1.55.9 1.77-1.01zM73.1 153.09l-1.77 1.02 1.55.9 1.77-1.02-1.55-.9zM101.52 139.05l-1.76 1.02 1.55.9 1.77-1.02-1.56-.9zM97.56 141.34l1.54.9 1.77-1.02-1.55-.9-1.76 1.02zM95.36 142.6l1.54.9 1.77-1.01-1.55-.9-1.76 1.01zM93.15 143.87l1.55.9 1.77-1.02-1.55-.9-1.77 1.02zM90.95 145.14l1.55.9 1.77-1.02-1.55-.9-1.77 1.02zM88.75 146.41l1.55.89 1.77-1.01-1.55-.9-1.77 1.02zM88.31 146.66l-2.2 1.26-.43.25-1.77 1.02-.89.52-1.31.75-1.39.8-2.57 1.48 1.54.9 2.7-1.55 1.27-.73v-.01l1.34-.77.87-.49h-.01l1.74-1 .47-.27 2.2-1.26-1.56-.9zM75.55 154.01l1.54.9 1.77-1.02-1.55-.9-1.76 1.02zM73.34 155.28l1.55.89 1.77-1.01-1.55-.9-1.77 1.02zM80.77 137.11l-5.54-3.2a.49.49 0 0 0-.47 0l-7.68 4.43a.21.21 0 0 0 0 .36l5.46 3.15a.52.52 0 0 0 .56 0l7.67-4.42a.19.19 0 0 0 0-.32z" class="cls-3"/>
            </g>
            <path d="M79.59 128.49s1.17 1.84 1.64 2.41 2.07 2.93 3.11 3.53 0-1.42-.11-2.05.55-1.23 1.59-.63 2 2.14 3.11 3 2.25-3.26.91-5.11a9.14 9.14 0 0 0-4.76-3.4c-2-.76-3.67-.41-4.5-.85z" class="cls-7"/>
            <path d="M65.25 111.16c-.89-6.45-1.44-10.92-1.44-10.92l8 15.46 11.48 9.9-4.1 4.53-12.85-9.46-.87-1.35a61.07 61.07 0 0 0-.22-8.16z" class="cls-5"/>
            <path d="M60.94 135.21s1.88.44 2.48.68 3 .89 3.76 1.64-1.27.51-1.85.62.62.85 1.36 1.61a4.37 4.37 0 0 1 1.38 3c.16 1.21-4 3.6-4.78 1.75a4.65 4.65 0 0 0-2.36-2.92 17.72 17.72 0 0 1-3.39-3.41z" class="cls-7"/>
            <path d="M43.15 102.27s-4 .91-4.34 7.2l3.26 13c.29 2.06.85 3.69 1.93 4.6l13.39 12.31 4.72-4.14-12.92-12.61-2.89-13.7s.33-5.36-3.15-6.66z" class="cls-5"/>
            <g>
                <path d="M74.48 130.71l31.34-18.09a.6.6 0 0 1 .63 0l.8.45-.64.86-.23.27v25a1 1 0 0 1-.52.89l-29.78 17.22v.26l-1 1.33-.89-.52A.46.46 0 0 1 74 158v-26.38a1 1 0 0 1 .48-.91z" class="cls-4"/>
                <path d="M75.36 131.22l31.43-18.13a.46.46 0 0 1 .69.4v26.38a1 1 0 0 1-.52.89L75.54 158.9a.48.48 0 0 1-.71-.41v-26.36a1.08 1.08 0 0 1 .53-.91z" class="cls-3"/>
            </g>
            <path d="M33.6 155.72l19.15 10.84 12.2-7.06-19.15-10.84-12.2 7.06z" class="cls-21"/>
            <path d="M33.6 160.68l19.15 10.85 12.2-7.06-19.15-10.84-12.2 7.05z" class="cls-22"/>
            <g>
                <path d="M121.74 126.42l-.01-1.26v1.17l.01 1.26v-1.17zM133.36 127.94l-1.54.9v1.17l1.53-.9.01-1.17zM115.45 128.84l-1.54-.9-.01 1.17 1.55.9v-1.17zM118.74 132.89v-.13-.14l.06-.13a1 1 0 0 1 .07-.15l.06-.11.12-.17.08-.1a2.19 2.19 0 0 1 .21-.23.6.6 0 0 0 .08-.08l.15-.12.14-.11.18-.12.19-.12a5 5 0 0 1 .46-.24l.14-.06.39-.14.14-.05.26-.07.19-.06.27-.05h.19a5.39 5.39 0 0 1 .56-.08h2.2l.26.05h.21l.3.07.17.05a4.12 4.12 0 0 1 .53.18l.25.11.13.05a3 3 0 0 1 .36.19 2.46 2.46 0 0 1 1.46 2v-1.17a2.48 2.48 0 0 0-1.46-2l-.36-.19-.13-.06-.23-.09a4.72 4.72 0 0 0-.53-.18H125.67l-.31-.07h-1.54a.33.33 0 0 1-.1 0H122.73a5 5 0 0 0-.56.08h-.16l-.27.06-.2.06-.25.07h-.14a3.54 3.54 0 0 0-.39.14l-.14.06a5.16 5.16 0 0 0-.47.24h-.06a.91.91 0 0 0-.13.08l-.18.12-.13.11-.16.12v.05l-.21.23v.05a1.63 1.63 0 0 0-.11.17l-.05.07a1 1 0 0 0-.07.15.79.79 0 0 1 0 .09.57.57 0 0 0 0 .14.54.54 0 0 0 0 .1.81.81 0 0 0 0 .16V132.88c0-.05-.32.06-.31.01zM133.35 133.12a1.8 1.8 0 0 1-.08.21l-.06.15-.06.13-.07.14-.08.13a.86.86 0 0 1-.1.16.83.83 0 0 1-.08.12.88.88 0 0 1-.12.17.76.76 0 0 1-.08.11 3.48 3.48 0 0 1-.26.3l-.26.25-.21.2v1.17l.18-.16c.09-.08.17-.17.25-.25l.26-.3.06-.08.12-.17.08-.12c0-.05.07-.1.1-.16v-.05a.3.3 0 0 0 0-.08.61.61 0 0 0 .07-.14.83.83 0 0 0 .07-.13l.06-.15v-.06l.06-.15h2.18v-1.17zM115.49 136.4v-1.17a4.9 4.9 0 0 1-1.52-2.11h-2.18v1.17H114a4.9 4.9 0 0 0 1.49 2.11zM129.2 136.77a7 7 0 0 1-.81.28l-.46.14-.43.11-.48.11-.45.09c-.33.06-.66.11-1 .14v1.17c.34 0 .67-.08 1-.14h.05l.4-.08.47-.11a3.17 3.17 0 0 0 .44-.12l.46-.12h.05c.26-.08.51-.17.76-.27l1.54.9 2.66-1.55v-1.17l-2.65 1.55z" class="cls-4"/>
                <path d="M121.8 137.64c-.23 0-.47-.06-.7-.1l-.5-.08-.43-.09-.59-.14-.45-.13-.2-.06c-.26-.08-.52-.17-.76-.27l-1.54.9-2.63-1.55v1.17l2.67 1.55 1.54-.9c.25.1.51.19.77.27l.2.06.2.06.25.07.58.14.19.05h.25l.5.08h.22a3.93 3.93 0 0 0 .48.06V140h3.76v-1.17h-3.77z" class="cls-4"/>
                <path d="M130.75 137.67l-1.55-.9a14.17 14.17 0 0 1-3.63.87v1.27h-3.77v-1.27a14.25 14.25 0 0 1-3.64-.87l-1.54.9-2.62-1.55 1.54-.89a4.9 4.9 0 0 1-1.52-2.11h-2.18v-2.18H114a4.74 4.74 0 0 1 1.49-2.1l-1.54-.9 2.65-1.54 1.55.89a14.6 14.6 0 0 1 3.63-.87v-1.26h3.77v1.26a14.79 14.79 0 0 1 3.64.87l1.53-.89 2.68 1.54-1.54.9a4.82 4.82 0 0 1 1.52 2.1h2.18v2.18h-2.18a4.82 4.82 0 0 1-1.49 2.11l1.54.89zm-10.58-3.61a7.72 7.72 0 0 0 7 0c1.92-1.12 1.91-2.93 0-4.05a7.69 7.69 0 0 0-7 0c-1.92 1.12-1.91 2.93 0 4.05" class="cls-2"/>
            </g>
            <g>
                <path d="M126.38 139.46l-.01-1.03v1.99l.01-.96zM135.87 140.71l-1.26.73v.95l1.26-.73v-.95zM121.24 141.44l-1.27-.73v.95l1.27.73v-.95zM123.92 144.75v-.11a.56.56 0 0 1 0-.12.36.36 0 0 1 0-.09.52.52 0 0 1 .06-.13.41.41 0 0 1 0-.09l.09-.14.07-.08.17-.19.07-.06.12-.1.11-.09.15-.1.15-.1.38-.19h.12l.32-.12h.11l.21-.06h.53l.46-.06H129.2l.25.06h.13l.44.14.2.09h.11l.29.15A2 2 0 0 1 132 145v-.95a2 2 0 0 0-1.19-1.66l-.3-.16h-.11a1 1 0 0 0-.18-.08c-.14-.06-.28-.1-.43-.15h-.1l-.25-.07h-2.18l-.46.06h-.52l-.2.06H125.96l-.32.12h-.11l-.38.2-.11.07-.14.1-.12.09-.12.1-.17.18-.1.14v.06l-.06.13a.21.21 0 0 0 0 .07.56.56 0 0 0 0 .12.24.24 0 0 1 0 .08V144.61c0-.03-.41.18-.41.14zM135.86 144.94l-.06.17a.61.61 0 0 0-.05.12.54.54 0 0 0-.05.11l-.06.11-.06.11-.08.13a.61.61 0 0 0-.07.1 1.13 1.13 0 0 1-.1.13l-.06.09-.21.25-.2.21-.18.16v1a.86.86 0 0 0 .14-.13 2 2 0 0 0 .21-.2 2.25 2.25 0 0 0 .21-.24l.05-.07.1-.13.06-.1a1 1 0 0 0 .08-.14v-.06l.06-.12a379979309970.7 379979309970.7 0 0 0 .1-.22l.05-.12h1.78v-1zM121.27 147.61v-1a4.07 4.07 0 0 1-1.24-1.72h-1.78v1H120a3.9 3.9 0 0 0 1.27 1.72z" class="cls-4"/>
                <path d="M132.47 147.92c-.21.08-.43.16-.66.23l-.38.11-.35.1-.39.08-.37.07q-.4.08-.81.12v1c.28 0 .55-.07.82-.12l.33-.07.39-.08.35-.1.38-.1c.21-.06.42-.14.62-.21l1.26.73 2.17-1.26v-1l-2.18 1.26zM126.43 148.63l-.58-.08-.41-.07-.35-.07-.48-.12-.37-.1-.16-.05-.62-.22-1.25.73-2.21-1.26v1l2.18 1.26 1.26-.73a5.81 5.81 0 0 0 .63.21l.16.06h.16l.21.05.48.11h.35l.41.07h.19l.38.05v1h3.08v-1h-3.08z" class="cls-4"/>
                <path d="M133.73 148.65l-1.26-.73a11.34 11.34 0 0 1-3 .71v1h-3.08v-1a11.49 11.49 0 0 1-3-.71l-1.25.73-2.14-1.26 1.26-.73a4.07 4.07 0 0 1-1.24-1.72h-1.78v-1.78H120a4 4 0 0 1 1.22-1.72l-1.26-.73 2.17-1.26 1.26.73a11.74 11.74 0 0 1 3-.72v-1h3.08v1a11.92 11.92 0 0 1 3 .72l1.25-.73 2.19 1.26-1.26.73a4 4 0 0 1 1.24 1.72h1.78v1.78h-1.78a4 4 0 0 1-1.22 1.72l1.27.73zm-8.64-3a6.28 6.28 0 0 0 5.71 0c1.57-.91 1.57-2.39 0-3.3a6.25 6.25 0 0 0-5.71 0c-1.58.91-1.57 2.39 0 3.3" class="cls-2"/>
            </g>
            <g>
                <path d="M30.63 142.89s-1.34-1.33-1.73-1.84-2.08-2.3-2.31-3.3 1.33.22 1.87.42 1.33-.27 1.1-1.28-1.52-2.86-2-4 4.1-1 5.4.44a7.59 7.59 0 0 1 2 4.93c.09 1.85-.72 3.37-.57 4.18z" class="cls-7"/>
                <path d="M35.14 140.88l-6.13.91.86 10.12 9.1 8.22a72.43 72.43 0 0 0-3.83-19.25z" class="cls-2"/>
                <path d="M14.17 231.89s-.54 2.4 2.73 2.83 4.71.4 5 2.59-.64 3.11-4.26 3.33a42.45 42.45 0 0 1-11.41-1.36c-.49-.14-.91-.4-.94-.92a17.67 17.67 0 0 1 1.22-6c1.17-2.78 7.66-.47 7.66-.47z" class="cls-17"/>
                <path d="M26.88 234.75s-.26.77 3 .95 6.81.18 7.26 2.34-2.12 3.87-5.72 4.36c-3.1.43-9.3.72-11.77.82a1 1 0 0 1-1-.84 24.28 24.28 0 0 1-.18-5c.26-3.03 8.41-2.63 8.41-2.63z" class="cls-18"/>
                <path d="M9.67 179.87s-.94 26.52-1.18 29.75-2.71 23.32-2.71 23.32 5.55 2.79 9.85.88l4.79-51z" class="cls-23"/>
                <path d="M17.43 181.54l1.3 26.08c-.24 7.76-.55 30-.55 30a14.33 14.33 0 0 0 10.35-2.73c-.35-3.47 0-24.49 0-24.49 1.3-10.16.65-26.5.79-29.5v-.49z" class="cls-24"/>
                <path d="M5.84 142.41s-3.22 12.44-2.34 19.13a7.72 7.72 0 0 0 6.69 3.08z" class="cls-2"/>
                <path d="M27.93 130.72c0 4.87-3.22 8.8-7.17 8.79s-7.14-4-7.13-8.83 3.23-8.8 7.17-8.79 7.14 3.97 7.13 8.83z" class="cls-8"/>
                <path d="M32.76 144.22s-6-2.28-6.79-2.82a3 3 0 0 1-1.11-1.4 16 16 0 0 0-9.21-2.47c-7.54 2.06-9.81 4.87-9.81 4.87.78 6.43 2.44 31.79 2.8 37.42a1.88 1.88 0 0 0 1.08 1.6c9.28 4.26 16.16 2.21 19.35.67a3.11 3.11 0 0 0 1.7-3.16c-1.35-12.15 1.99-34.71 1.99-34.71z" class="cls-18"/>
                <path d="M23.37 121.5s5.63 1.06 5.63 5.75L23.8 129s.82 4-2.1 5c0 0-.85 3.58-6.15 3.25 0 0-8-10.38 1.77-15.3a12.82 12.82 0 0 1 6.05-.45z" class="cls-6"/>
                <path d="M33 144.22c-5.44 0-3.28 11.72-3.28 11.72l1.86 8.16a2.16 2.16 0 0 0 2.42 1.57 5.66 5.66 0 0 0 5-4.62 25.6 25.6 0 0 0-6-16.83zM24.86 140a16 16 0 0 0-9.21-2.47c-1.18.32-2.22.66-3.15 1 4.56 0 10.6 1.66 12.89 2.34a3 3 0 0 1-.53-.87z" class="cls-2"/>
            </g>
            <g>
                <path d="M245.36 70L124.61.3a2.28 2.28 0 0 0-2.42.1l-2.69 1.5 2.5 3.35.92 1v76.36a4 4 0 0 0 2 3.46l114.67 66.16.19 1 3.69 5.18 3.06-1.78a1.79 1.79 0 0 0 .86-1.55V73.52a4.12 4.12 0 0 0-2.03-3.52z" class="cls-2"/>
                <path d="M242.33 71.72L121.29 1.9a1.79 1.79 0 0 0-2.68 1.55v81.64a4 4 0 0 0 2 3.45l121 69.84a1.83 1.83 0 0 0 2.75-1.59V75.28a4.09 4.09 0 0 0-2.03-3.56z" class="cls-25"/>
                <path d="M118.61 3.45v81.64a4 4 0 0 0 2 3.45l121 69.84a1.81 1.81 0 0 0 .91.25 1.84 1.84 0 0 0 1.84-1.84V75.28a4.09 4.09 0 0 0-2.06-3.56L121.29 1.9a1.73 1.73 0 0 0-.89-.24 1.79 1.79 0 0 0-1.79 1.79zm1.74 0v-.08h.07l121 69.82a2.38 2.38 0 0 1 1.19 2v81.39c0 .09-.1.09-.1.09L121.48 86.91a2.25 2.25 0 0 1-1.13-2zM243.47 158.39z" class="cls-3"/>
                <path d="M244.39 156.79V75.28a3.93 3.93 0 0 0-.28-1.4l3.06-1.71a4.09 4.09 0 0 1 .25 1.35V155a1.79 1.79 0 0 1-.86 1.55l-3 1.75a1.82 1.82 0 0 0 .83-1.51z" class="cls-4"/>
                <path d="M131.5 14.17v1.67l7.01 4.05v-1.67l-7.01-4.05z" class="cls-26"/>
                <path d="M131.5 17.22v1.67l7.01 4.04v-1.66l-7.01-4.05zM131.5 20.27v1.67l7.01 4.04v-1.67l-7.01-4.04zM184.42 55.51v-1.67l-43.27-24.96v1.67l43.27 24.96zM131.5 23.32v1.67l7.01 4.04v-1.67l-7.01-4.04zM131.5 26.37v1.67l7.01 4.04v-1.67l-7.01-4.04z" class="cls-27"/>
                <path d="M184.42 58.56v-1.67l-43.27-24.96v1.67l43.27 24.96z" class="cls-28"/>
                <path d="M131.5 35.52v1.66l7.01 4.05v-1.67l-7.01-4.04z" class="cls-27"/>
                <path d="M131.5 38.56v1.67l7.01 4.05v-1.67l-7.01-4.05z" class="cls-26"/>
                <path d="M131.5 50.76v1.67l7.01 4.04V54.8l-7.01-4.04zM131.5 53.81v1.67l7.01 4.04v-1.67l-7.01-4.04z" class="cls-27"/>
                <path d="M168.44 75.12l-27.29-15.75v1.67l27.29 15.74v-1.66z" class="cls-28"/>
                <path d="M169.88 75.95v1.66L184.42 86v-1.67l-14.54-8.38zM154.86 64.23l-13.71-7.91v1.67l13.71 7.91v-1.67zM156.3 65.06v1.67l28.12 16.22v-1.67L156.3 65.06zM180.72 70v1.67l3.7 2.13v-1.67l-3.7-2.13z" class="cls-27"/>
                <path d="M160.59 55.34l-19.44-11.21v1.66l19.44 11.22v-1.67z" class="cls-21"/>
                <path d="M152.62 26.35l-11.47-6.62v1.67l11.47 6.62v-1.67zM171.43 37.2l-17.37-10.02v1.67l17.37 10.02V37.2zM161.31 34.41l-12.23-7.05v1.67l12.23 7.05v-1.67z" class="cls-27"/>
                <path d="M174.14 41.81l-11.39-6.57v1.67l11.39 6.57v-1.67z" class="cls-21"/>
                <path d="M175.58 42.65v1.66l8.84 5.1v-1.67l-8.84-5.09z" class="cls-27"/>
                <path d="M143.41 27.14v1.66l9.21 5.32v-1.67l-9.21-5.31z" class="cls-21"/>
                <path d="M180.81 48.71l-26.75-15.43v1.67l26.75 15.43v-1.67zM165.5 49.02l-17.49-10.08v1.67l17.49 10.08v-1.67zM180.81 57.86l-13.87-8.01v1.67l13.87 8.01v-1.67zM179.28 66.12l-17.25-9.95v1.67l17.25 9.95v-1.67z" class="cls-27"/>
                <path d="M169.88 63.75v1.67l9.4 5.42v-1.67l-9.4-5.42z" class="cls-28"/>
                <path d="M144.53 49.13l-3.38-1.96v1.67l3.38 1.96v-1.67z" class="cls-27"/>
                <g>
                    <path d="M150.87 52.78v1.67l17.57 10.14v-1.67l-17.57-10.14zM149.43 51.95l-3.46-1.99v1.67l3.46 1.99v-1.67z" class="cls-27"/>
                </g>
                <path d="M165.19 64.09l-19.22-11.08v1.66l19.22 11.09v-1.67z" class="cls-27"/>
                <g>
                    <path d="M131.5 62.79v1.67l7.01 4.04v-1.67l-7.01-4.04z" class="cls-26"/>
                    <path d="M131.5 65.84v1.67l7.01 4.04v-1.67l-7.01-4.04zM131.5 68.89v1.67l7.01 4.04v-1.67l-7.01-4.04zM184.42 104.13v-1.67L141.15 77.5v1.67l43.27 24.96zM131.5 71.94v1.67l7.01 4.04v-1.67l-7.01-4.04zM131.5 74.99v1.67l7.01 4.04v-1.67l-7.01-4.04z" class="cls-27"/>
                    <path d="M184.42 107.17v-1.66l-43.27-24.96v1.67l43.27 24.95z" class="cls-28"/>
                    <path d="M131.5 84.13v1.67l7.01 4.05v-1.67l-7.01-4.05z" class="cls-27"/>
                    <path d="M131.5 87.18v1.67l7.01 4.04v-1.66l-7.01-4.05z" class="cls-26"/>
                    <path d="M160.59 103.96l-19.44-11.22v1.67l19.44 11.22v-1.67z" class="cls-21"/>
                    <path d="M152.62 74.97l-11.47-6.62v1.67l11.47 6.62v-1.67zM171.43 85.82L154.06 75.8v1.67l17.37 10.02v-1.67zM161.31 83.03l-12.23-7.06v1.67l12.23 7.06v-1.67z" class="cls-27"/>
                    <path d="M174.14 90.43l-11.39-6.57v1.67l11.39 6.57v-1.67z" class="cls-21"/>
                    <path d="M175.58 91.26v1.67l8.84 5.1v-1.67l-8.84-5.1z" class="cls-27"/>
                    <path d="M143.41 75.75v1.67l9.21 5.32v-1.67l-9.21-5.32z" class="cls-21"/>
                    <path d="M180.81 97.33L154.06 81.9v1.67L180.81 99v-1.67zM165.5 97.64l-17.49-10.08v1.67l17.49 10.08v-1.67zM180.81 106.48l-13.87-8.01v1.67l13.87 8v-1.66zM179.28 114.74l-17.25-9.95v1.67l17.25 9.95v-1.67z" class="cls-27"/>
                </g>
                <g>
                    <path d="M216.95 63.4v.66l2.78 1.61V65l-2.78-1.6zM216.95 64.61v.66l2.78 1.61v-.66l-2.78-1.61zM216.95 65.82v.66l2.78 1.61v-.66l-2.78-1.61zM237.96 79.81v-.66l-17.18-9.91v.66l17.18 9.91zM216.95 67.03v.66l2.78 1.61v-.66l-2.78-1.61zM216.95 68.24v.66l2.78 1.61v-.66l-2.78-1.61zM237.96 81.03v-.67l-17.18-9.91v.66l17.18 9.92zM216.95 71.87v.67l2.78 1.6v-.66l-2.78-1.61zM216.95 73.08v.67l2.78 1.6v-.66l-2.78-1.61zM216.95 77.93v.66l2.78 1.61v-.67l-2.78-1.6zM216.95 79.14v.66l2.78 1.61v-.66l-2.78-1.61zM231.62 87.6l-10.84-6.25v.66l10.84 6.25v-.66zM232.19 87.93v.66l5.77 3.33v-.66l-5.77-3.33zM226.22 83.28l-5.44-3.14v.66l5.44 3.14v-.66zM226.79 83.61v.66l11.17 6.44v-.66l-11.17-6.44zM236.49 85.57v.66l1.47.85v-.66l-1.47-.85zM228.5 79.75l-7.72-4.46v.67l7.72 4.45v-.66zM225.33 68.24l-4.55-2.63v.66l4.55 2.63v-.66zM232.8 72.55l-6.89-3.99v.67l6.89 3.98v-.66zM228.78 71.44l-4.85-2.81v.67l4.85 2.8v-.66zM233.88 74.38l-4.53-2.61v.66l4.53 2.61v-.66zM234.45 74.7v.67l3.51 2.02v-.66l-3.51-2.03zM221.67 68.55v.66l3.66 2.11v-.66l-3.66-2.11zM236.53 77.11l-10.62-6.12v.66l10.62 6.13v-.67zM230.45 77.24l-6.95-4.01v.67l6.95 4v-.66zM236.53 80.75l-5.51-3.18v.66l5.51 3.18v-.66zM235.92 84.03l-6.85-3.95v.66l6.85 3.95v-.66zM232.19 83.09v.66l3.73 2.15v-.66l-3.73-2.15zM222.12 77.28l-1.34-.78v.67l1.34.77v-.66z" class="cls-28"/>
                    <g>
                        <path d="M224.64 78.73v.66l6.98 4.03v-.66l-6.98-4.03zM224.06 78.4l-1.37-.79v.66l1.37.79v-.66z" class="cls-28"/>
                    </g>
                    <path d="M230.32 83.22l-7.63-4.4v.66l7.63 4.41v-.67z" class="cls-28"/>
                </g>
                <g>
                    <path d="M216.95 83.89v.66l2.78 1.61v-.67l-2.78-1.6zM216.95 85.1v.66l2.78 1.6v-.66l-2.78-1.6zM216.95 86.31v.66l2.78 1.61v-.67l-2.78-1.6zM237.96 100.3v-.66l-17.18-9.91v.66l17.18 9.91zM216.95 87.52v.66l2.78 1.61v-.67l-2.78-1.6zM216.95 88.73v.66l2.78 1.61v-.67l-2.78-1.6zM237.96 101.51v-.66l-17.18-9.91v.66l17.18 9.91zM216.95 92.36v.66l2.78 1.61v-.66l-2.78-1.61zM216.95 93.57v.66l2.78 1.61v-.66l-2.78-1.61zM216.95 98.42v.66l2.78 1.6v-.66l-2.78-1.6zM216.95 99.63v.66l2.78 1.6v-.66l-2.78-1.6zM231.62 108.09l-10.84-6.26v.67l10.84 6.25v-.66zM232.19 108.42v.66l5.77 3.33v-.66l-5.77-3.33zM226.22 103.77l-5.44-3.15v.67l5.44 3.14v-.66zM226.79 104.09v.67l11.17 6.44v-.67l-11.17-6.44zM236.49 106.06v.66l1.47.85v-.67l-1.47-.84zM228.5 100.23l-7.72-4.45v.66l7.72 4.46v-.67zM225.33 88.72l-4.55-2.63v.67l4.55 2.63v-.67zM232.8 93.03l-6.89-3.98v.67l6.89 3.97v-.66zM228.78 91.92l-4.85-2.8v.66l4.85 2.81v-.67zM233.88 94.86l-4.53-2.61v.67l4.53 2.61v-.67zM234.45 95.19v.67l3.51 2.02v-.66l-3.51-2.03zM221.67 89.03v.67l3.66 2.11v-.67l-3.66-2.11zM236.53 97.6l-10.62-6.13v.67l10.62 6.13v-.67zM230.45 97.73l-6.95-4.01v.66l6.95 4.01v-.66zM236.53 101.23l-5.51-3.17v.66l5.51 3.18v-.67zM235.92 104.52l-6.85-3.96v.67l6.85 3.95v-.66zM232.19 103.57v.67l3.73 2.15v-.66l-3.73-2.16zM222.12 97.77l-1.34-.78v.66l1.34.78v-.66z" class="cls-27"/>
                    <g>
                        <path d="M224.64 99.22v.66l6.98 4.03v-.67l-6.98-4.02zM224.06 98.89l-1.37-.79v.66l1.37.79v-.66z" class="cls-27"/>
                    </g>
                    <path d="M230.32 103.71l-7.63-4.4v.66l7.63 4.4v-.66z" class="cls-27"/>
                </g>
                <g>
                    <path d="M216.95 104.37v.67l2.78 1.6v-.66l-2.78-1.61zM216.95 105.58v.67l2.78 1.6v-.66l-2.78-1.61zM216.95 106.8v.66l2.78 1.6v-.66l-2.78-1.6zM237.96 120.79v-.66l-17.18-9.92v.67l17.18 9.91zM216.95 108.01v.66l2.78 1.6v-.66l-2.78-1.6zM216.95 109.22v.66l2.78 1.6v-.66l-2.78-1.6zM237.96 122v-.66l-17.18-9.92v.67l17.18 9.91zM216.95 112.85v.66l2.78 1.61v-.67l-2.78-1.6zM216.95 114.06v.66l2.78 1.61v-.66l-2.78-1.61zM216.95 118.9v.67l2.78 1.6v-.66l-2.78-1.61zM216.95 120.11v.67l2.78 1.6v-.66l-2.78-1.61zM231.62 128.57l-10.84-6.25v.66l10.84 6.26v-.67zM232.19 128.91v.66l5.77 3.33v-.67l-5.77-3.32zM226.22 124.25l-5.44-3.14v.66l5.44 3.15v-.67zM226.79 124.58v.67l11.17 6.44v-.67l-11.17-6.44zM236.49 126.54v.67l1.47.84v-.66l-1.47-.85zM228.5 120.72l-7.72-4.45v.66l7.72 4.46v-.67zM225.33 109.21l-4.55-2.63v.67l4.55 2.62v-.66zM232.8 113.52l-6.89-3.98v.66l6.89 3.98v-.66zM228.78 112.41l-4.85-2.8v.66l4.85 2.8v-.66zM233.88 115.35l-4.53-2.61v.66l4.53 2.61v-.66zM234.45 115.68v.66l3.51 2.03v-.67l-3.51-2.02zM221.67 109.52v.66l3.66 2.12v-.67l-3.66-2.11zM236.53 118.09l-10.62-6.13v.66l10.62 6.13v-.66zM230.45 118.21l-6.95-4v.66l6.95 4.01v-.67zM236.53 121.72l-5.51-3.18v.67l5.51 3.17v-.66zM235.92 125l-6.85-3.95v.66l6.85 3.96V125zM232.19 124.06v.66l3.73 2.16v-.67l-3.73-2.15zM222.12 118.25l-1.34-.77v.66l1.34.78v-.67z" class="cls-26"/>
                    <g>
                        <path d="M224.64 119.71v.66l6.98 4.02v-.66l-6.98-4.02zM224.06 119.38l-1.37-.8v.67l1.37.79v-.66z" class="cls-26"/>
                    </g>
                    <path d="M230.32 124.2l-7.63-4.41v.67l7.63 4.4v-.66z" class="cls-26"/>
                </g>
                <g>
                    <path d="M216.95 124.86v.66l2.78 1.61v-.66l-2.78-1.61zM216.95 126.07v.66l2.78 1.61v-.66l-2.78-1.61zM216.95 127.28v.66l2.78 1.61v-.66l-2.78-1.61zM237.96 141.28v-.67l-17.18-9.91v.66l17.18 9.92zM216.95 128.49v.67l2.78 1.6v-.66l-2.78-1.61zM216.95 129.7v.67l2.78 1.6v-.66l-2.78-1.61zM237.96 142.49v-.67l-17.18-9.91v.66l17.18 9.92zM216.95 133.34v.66l2.78 1.6v-.66l-2.78-1.6zM216.95 134.55v.66l2.78 1.61v-.67l-2.78-1.6zM236.49 147.03v.66l1.47.85v-.66l-1.47-.85zM228.5 141.21l-7.72-4.45v.66l7.72 4.45v-.66zM225.33 129.7l-4.55-2.63v.66l4.55 2.63v-.66zM232.8 134.01l-6.89-3.98v.66l6.89 3.98v-.66zM228.78 132.9l-4.85-2.8v.66l4.85 2.8v-.66zM233.88 135.84l-4.53-2.61v.66l4.53 2.61v-.66zM234.45 136.17v.66l3.51 2.02v-.66l-3.51-2.02zM221.67 130.01v.66l3.66 2.11v-.66l-3.66-2.11zM236.53 138.58l-10.62-6.13v.66l10.62 6.13v-.66zM230.45 138.7l-6.95-4v.66l6.95 4v-.66zM236.53 142.21l-5.51-3.18v.66l5.51 3.18v-.66zM235.92 145.49l-6.85-3.95v.66l6.85 3.95v-.66zM232.19 144.55v.66l3.73 2.15v-.66l-3.73-2.15zM222.12 138.74l-1.34-.77v.66l1.34.77v-.66zM224.64 140.19v.67l6.98 4.02v-.66l-6.98-4.03zM224.06 139.86l-1.37-.79v.66l1.37.8v-.67zM230.32 144.69l-7.63-4.41v.66l7.63 4.41v-.66z" class="cls-27"/>
                </g>
                <g>
                    <path d="M127 11.58l-2.31-1.33a.16.16 0 0 0-.25.14v2.77a.39.39 0 0 0 .19.33l2.37 1.33a.17.17 0 0 0 .26-.15v-2.75a.4.4 0 0 0-.26-.34zM127 15.72l-2.31-1.34a.17.17 0 0 0-.25.15v2.77a.37.37 0 0 0 .19.32L127 19a.18.18 0 0 0 .26-.15v-2.8a.38.38 0 0 0-.26-.33zM127 19.85l-2.31-1.33a.17.17 0 0 0-.25.15v2.76a.37.37 0 0 0 .19.33l2.37 1.33a.17.17 0 0 0 .26-.15v-2.75a.4.4 0 0 0-.26-.34zM127 24l-2.31-1.33a.16.16 0 0 0-.25.14v2.77a.39.39 0 0 0 .19.33l2.37 1.32a.17.17 0 0 0 .26-.15v-2.75A.4.4 0 0 0 127 24zM127 28.13l-2.31-1.34a.17.17 0 0 0-.25.15v2.77a.37.37 0 0 0 .19.32l2.37 1.34a.18.18 0 0 0 .26-.15v-2.76a.38.38 0 0 0-.26-.33zM127 32.26l-2.31-1.33a.17.17 0 0 0-.25.15v2.76a.37.37 0 0 0 .19.33L127 35.5a.17.17 0 0 0 .26-.15V32.6a.4.4 0 0 0-.26-.34zM127 36.4l-2.31-1.33a.16.16 0 0 0-.25.14V38a.39.39 0 0 0 .19.33l2.37 1.31a.17.17 0 0 0 .26-.15v-2.75a.4.4 0 0 0-.26-.34zM127 40.54l-2.3-1.34a.17.17 0 0 0-.25.15v2.77a.36.36 0 0 0 .19.32l2.36 1.34a.18.18 0 0 0 .26-.15v-2.76a.4.4 0 0 0-.26-.33zM127 44.67l-2.31-1.33a.17.17 0 0 0-.25.15v2.76a.37.37 0 0 0 .19.33l2.37 1.33a.17.17 0 0 0 .26-.15V45a.4.4 0 0 0-.26-.33zM127 48.81l-2.31-1.33a.16.16 0 0 0-.25.14v2.77a.39.39 0 0 0 .19.33l2.37 1.33a.17.17 0 0 0 .26-.15v-2.75a.4.4 0 0 0-.26-.34zM127 53l-2.31-1.34a.17.17 0 0 0-.25.15v2.77a.36.36 0 0 0 .19.32l2.37 1.29a.17.17 0 0 0 .26-.15v-2.76A.4.4 0 0 0 127 53zM127 57.08l-2.31-1.33a.17.17 0 0 0-.25.15v2.76a.37.37 0 0 0 .19.33l2.37 1.34a.18.18 0 0 0 .26-.16v-2.75a.4.4 0 0 0-.26-.34z" class="cls-28"/>
                </g>
                <g>
                    <path d="M193.37 51.15a1.2 1.2 0 0 0-.2.82v1.82c0 .34-.11.52-.32.54a1.66 1.66 0 0 1-.93-.31v1.24a3 3 0 0 1 .92.76 1.51 1.51 0 0 1 .32 1v1.76a2.41 2.41 0 0 0 .2 1 2.6 2.6 0 0 0 .63.86 7 7 0 0 0 1.2.85v-1.17a1.91 1.91 0 0 1-.67-.59 1.35 1.35 0 0 1-.18-.7v-1.75a2.33 2.33 0 0 0-1.12-1.85v-.06c.74.3 1.11.09 1.12-.62v-1.68c0-.28.06-.44.18-.5s.34 0 .67.18v-1.17A4.77 4.77 0 0 0 194 51a.63.63 0 0 0-.63.15zM200.32 58.65a1.41 1.41 0 0 1-.31-.91v-1.82a2.43 2.43 0 0 0-.45-1.48 5.45 5.45 0 0 0-1.56-1.27v1.17a2.13 2.13 0 0 1 .67.6 1.39 1.39 0 0 1 .17.7v1.68a2.41 2.41 0 0 0 1.12 1.92v.06a1.13 1.13 0 0 0-.84-.08c-.19.09-.29.31-.29.64v1.74c0 .27 0 .44-.17.5s-.35 0-.68-.18v1.17a2.87 2.87 0 0 0 1.59.56c.3-.06.46-.37.46-.95v-1.76c0-.37.11-.57.32-.6a1.6 1.6 0 0 1 .92.31v-1.24a3 3 0 0 1-.95-.76z" class="cls-27"/>
                </g>
                <g>
                    <path d="M204.79 57.57a1.16 1.16 0 0 0-.21.81v1.83c0 .33-.11.52-.33.54a1.75 1.75 0 0 1-.92-.31v1.24a3.17 3.17 0 0 1 .93.76 1.54 1.54 0 0 1 .32 1v1.76a2.62 2.62 0 0 0 .2 1 2.47 2.47 0 0 0 .64.85 6 6 0 0 0 1.2.85v-1.16a1.92 1.92 0 0 1-.67-.6 1.32 1.32 0 0 1-.17-.7v-1.75a2.34 2.34 0 0 0-1.11-1.84v-.07c.73.31 1.11.1 1.12-.61v-1.69c0-.27.07-.43.18-.49s.35 0 .67.18V58a4.72 4.72 0 0 0-1.2-.54.63.63 0 0 0-.65.11zM211.74 65.07a1.44 1.44 0 0 1-.32-.91v-1.83a2.36 2.36 0 0 0-.46-1.47 4.91 4.91 0 0 0-1.59-1.27v1.17a2 2 0 0 1 .67.59 1.33 1.33 0 0 1 .18.7v1.69a2.42 2.42 0 0 0 1.13 1.91v.07a1.09 1.09 0 0 0-.84-.09c-.2.1-.29.31-.3.65V68c0 .27-.06.44-.18.5s-.34 0-.67-.18v1.18a2.88 2.88 0 0 0 1.58.57c.31-.06.47-.38.47-1v-1.71c0-.37.11-.57.32-.6a1.63 1.63 0 0 1 .92.3v-1.23a3.16 3.16 0 0 1-.91-.76z" class="cls-27"/>
                </g>
                <path d="M202.36 117.4l-1.11-.64a3.45 3.45 0 0 1-.77 1.68l.78 1.35-1.36.77-.78-1.35a3.45 3.45 0 0 1-1.84-.19v1.28l-1.91-1.11v-1.27a10.64 10.64 0 0 1-1.84-1.94l-.79.45-1.34-2.33.78-.45a10.65 10.65 0 0 1-.75-2.56l-1.11-.64v-2.19l1.1.64a3.54 3.54 0 0 1 .77-1.68l-.78-1.35 1.36-.77.78 1.35a3.54 3.54 0 0 1 1.84.18v-1.27l1.92 1.11v1.27a10.31 10.31 0 0 1 1.84 1.94l.79-.45 1.34 2.33-.78.45a9.82 9.82 0 0 1 .75 2.56l1.11.64zm-6-1.69c1.39.8 2.51.15 2.51-1.44a5.5 5.5 0 0 0-2.49-4.32c-1.38-.8-2.51-.15-2.51 1.43a5.5 5.5 0 0 0 2.49 4.33" class="cls-27"/>
                <path d="M210.34 128l-.9-.52a2.86 2.86 0 0 1-.63 1.37l.64 1.11-1.11.63-.64-1.11a2.9 2.9 0 0 1-1.51-.15v1l-1.56-.9v-1a8.13 8.13 0 0 1-1.5-1.59l-.64.37-1.1-1.91.61-.3a8.29 8.29 0 0 1-.62-2.09l-.91-.52v-1.8l.9.52a2.86 2.86 0 0 1 .63-1.37l-.63-1.1 1.1-.63.64 1.1a2.9 2.9 0 0 1 1.51.15v-1l1.56.9v1a8.36 8.36 0 0 1 1.5 1.58l.64-.36 1.1 1.9-.64.37a8.29 8.29 0 0 1 .62 2.09l.91.52zm-4.92-1.38c1.13.65 2.05.13 2.05-1.17a4.47 4.47 0 0 0-2-3.53c-1.13-.66-2.05-.13-2.05 1.17a4.51 4.51 0 0 0 2 3.53" class="cls-27"/>
                <g>
                    <path d="M204.28 70.72l-12.36-7.16v.63l12.36 7.16v-.63zM210.88 75.77L191.92 64.8v.63l18.96 10.97v-.63z" class="cls-27"/>
                    <path d="M210.88 74.53l-5.78-3.34v.63l5.78 3.34v-.63z" class="cls-28"/>
                    <path d="M204.28 73.13l-12.36-7.16v.63l12.36 7.16v-.63zM210.88 78.18l-18.96-10.97v.63l18.96 10.96v-.62z" class="cls-27"/>
                    <path d="M210.88 76.94l-5.78-3.34v.63l5.78 3.34v-.63z" class="cls-28"/>
                </g>
                <g>
                    <path d="M204.28 76.61l-12.36-7.16v.63l12.36 7.16v-.63zM210.88 81.66l-18.96-10.97v.63l18.96 10.96v-.62zM210.88 80.42l-5.78-3.34v.63l5.78 3.34v-.63zM204.28 79.02l-12.36-7.16v.63l12.36 7.16v-.63zM210.88 84.06L191.92 73.1v.63l18.96 10.96v-.63zM210.88 82.83l-5.78-3.34v.62l5.78 3.35v-.63z" class="cls-27"/>
                </g>
                <g>
                    <path d="M204.28 82.5l-12.36-7.16v.63l12.36 7.16v-.63zM210.88 87.55l-18.96-10.97v.63l18.96 10.96v-.62zM210.88 86.31l-5.78-3.34v.62l5.78 3.35v-.63z" class="cls-27"/>
                    <path d="M204.28 84.91l-12.36-7.16v.63l12.36 7.16v-.63z" class="cls-28"/>
                    <path d="M210.88 89.95l-18.96-10.96v.63l18.96 10.96v-.63zM210.88 88.72l-5.78-3.34V86l5.78 3.35v-.63z" class="cls-27"/>
                </g>
                <g>
                    <path d="M204.28 88.39l-12.36-7.16v.63l12.36 7.16v-.63zM210.88 93.44l-18.96-10.97v.63l18.96 10.96v-.62z" class="cls-27"/>
                    <path d="M210.88 92.2l-5.78-3.34v.62l5.78 3.35v-.63z" class="cls-28"/>
                    <path d="M204.28 90.8l-12.36-7.16v.63l12.36 7.16v-.63zM210.88 95.84l-18.96-10.96v.62l18.96 10.97v-.63z" class="cls-27"/>
                    <path d="M210.88 94.61l-5.78-3.34v.62l5.78 3.35v-.63z" class="cls-28"/>
                </g>
                <g>
                    <path d="M204.28 94.28l-12.36-7.16v.63l12.36 7.16v-.63zM210.88 99.32l-18.96-10.96v.62l18.96 10.97v-.63z" class="cls-27"/>
                    <path d="M210.88 98.09l-5.78-3.34v.62l5.78 3.35v-.63z" class="cls-28"/>
                    <path d="M204.28 96.69l-12.36-7.16v.63l12.36 7.16v-.63z" class="cls-27"/>
                    <path d="M210.88 101.73l-18.96-10.96v.62l18.96 10.97v-.63z" class="cls-28"/>
                    <path d="M210.88 100.5l-5.78-3.35v.63l5.78 3.35v-.63z" class="cls-27"/>
                </g>
            </g>
            <g>
                <g class="cls-1">
                    <path d="M16.6 15.09v1.17l4.9 2.83v-1.17l-4.9-2.83zM16.6 17.22v1.17l4.9 2.83v-1.17l-4.9-2.83zM16.6 19.35v1.17l4.9 2.83v-1.17l-4.9-2.83zM53.6 44v-1.17L23.34 25.38v1.16L53.6 44zM16.6 21.49v1.16l4.9 2.83v-1.16l-4.9-2.83zM16.6 23.62v1.17l4.9 2.82v-1.16l-4.9-2.83zM53.6 46.13v-1.17L23.34 27.51v1.17L53.6 46.13zM16.6 30.02v1.16l4.9 2.83v-1.17l-4.9-2.82zM16.6 32.15v1.16l4.9 2.83v-1.16l-4.9-2.83zM16.6 40.68v1.16l4.9 2.83v-1.16l-4.9-2.83zM16.6 42.81v1.17l4.9 2.82v-1.16l-4.9-2.83zM42.43 57.71L23.34 46.7v1.17l19.09 11.01v-1.17zM43.44 58.29v1.17l10.16 5.86v-1.16l-10.16-5.87zM32.93 50.1l-9.59-5.53v1.16l9.59 5.54V50.1zM33.94 50.68v1.17L53.6 63.19v-1.17L33.94 50.68zM51.02 54.13v1.17l2.58 1.49v-1.16l-2.58-1.5zM36.94 43.88l-13.6-7.84v1.16l13.6 7.85v-1.17zM31.36 23.61l-8.02-4.63v1.17l8.02 4.62v-1.16zM44.52 31.2l-12.15-7.01v1.17l12.15 7V31.2zM37.44 29.25l-8.55-4.94v1.17l8.55 4.93v-1.16zM46.41 34.42l-7.96-4.6v1.17l7.96 4.6v-1.17zM47.42 35v1.17l6.18 3.56v-1.16L47.42 35zM24.92 24.16v1.16l6.44 3.72v-1.17l-6.44-3.71zM51.08 39.24L32.37 28.45v1.17l18.71 10.79v-1.17zM40.37 39.46l-12.23-7.05v1.17l12.23 7.05v-1.17zM51.08 45.64l-9.7-5.6v1.17l9.7 5.6v-1.17zM50.01 51.42l-12.07-6.96v1.17l12.07 6.96v-1.17zM43.44 49.76v1.17l6.57 3.79v-1.17l-6.57-3.79zM25.7 39.53l-2.36-1.36v1.17l2.36 1.36v-1.17z" class="cls-2"/>
                    <g>
                        <path d="M30.14 42.09v1.17l12.29 7.09v-1.17l-12.29-7.09zM29.13 41.51l-2.42-1.39v1.16l2.42 1.4v-1.17z" class="cls-2"/>
                    </g>
                    <path d="M40.16 50l-13.45-7.75v1.16l13.45 7.76V50z" class="cls-2"/>
                </g>
                <path d="M70.8 31.48L50.89 20a1.88 1.88 0 0 0-2 .08l-4.37 2.52 2 2.76.76.87V46A3.31 3.31 0 0 0 49 48.8l14.91 8.61.15.83 3 4.26 4.68-2.75a1.49 1.49 0 0 0 .71-1.28v-24a3.39 3.39 0 0 0-1.65-2.99z" class="cls-29"/>
                <path d="M66.15 34.22L46 22.59a1.47 1.47 0 0 0-2.21 1.28V48a3.29 3.29 0 0 0 1.64 2.85l20.15 11.63a1.51 1.51 0 0 0 2.27-1.31v-24a3.38 3.38 0 0 0-1.7-2.95z" class="cls-11"/>
                <path d="M67.08 62.49z" class="cls-3"/>
                <path d="M67.85 61.17v-24a3.47 3.47 0 0 0-.23-1.17l4.67-2.69a3.42 3.42 0 0 1 .21 1.11v24a1.49 1.49 0 0 1-.71 1.28l-4.64 2.73a1.51 1.51 0 0 0 .7-1.26z" class="cls-30"/>
                <path d="M75 44.07L55.08 32.58a1.91 1.91 0 0 0-2 .08l-4.37 2.53 2 2.75.76.87v19.73a3.3 3.3 0 0 0 1.64 2.85L68.05 70l.15.83 3 4.26 4.68-2.75a1.5 1.5 0 0 0 .81-1.34V47A3.41 3.41 0 0 0 75 44.07z" class="cls-31"/>
                <path d="M70.34 46.81L50.19 35.18A1.48 1.48 0 0 0 48 36.46v24.12a3.28 3.28 0 0 0 1.64 2.85l20.13 11.65A1.52 1.52 0 0 0 72 73.77v-24a3.41 3.41 0 0 0-1.66-2.96z" class="cls-21"/>
                <path d="M71.27 75.08z" class="cls-3"/>
                <path d="M72 73.77v-24a3.52 3.52 0 0 0-.23-1.16l4.67-2.69a3.52 3.52 0 0 1 .25 1.08v24a1.5 1.5 0 0 1-.69 1.31l-4.64 2.73a1.51 1.51 0 0 0 .64-1.27z" class="cls-32"/>
                <g>
                    <path d="M53.29 41.71L33.37 30.22a1.87 1.87 0 0 0-2 .08L27 32.82l2 2.76.76.87v19.73A3.29 3.29 0 0 0 31.44 59l14.91 8.62.15.82 3 4.27L54.22 70a1.5 1.5 0 0 0 .78-1.33v-24a3.41 3.41 0 0 0-1.71-2.96z" class="cls-2"/>
                    <path d="M48.63 44.45L28.48 32.82a1.48 1.48 0 0 0-2.21 1.28v24.12a3.31 3.31 0 0 0 1.64 2.85l20.15 11.65a1.52 1.52 0 0 0 2.27-1.31v-24a3.41 3.41 0 0 0-1.7-2.96z" class="cls-3"/>
                    <g>
                        <path d="M49.57 72.72z" class="cls-3"/>
                        <path d="M50.33 71.41v-24a3.24 3.24 0 0 0-.23-1.16l4.68-2.69a3.42 3.42 0 0 1 .22 1.09v24a1.5 1.5 0 0 1-.73 1.35l-4.64 2.72a1.48 1.48 0 0 0 .7-1.31z" class="cls-4"/>
                    </g>
                </g>
                <g>
                    <path d="M44.53 46.83L24.62 35.34a1.88 1.88 0 0 0-2 .08l-4.37 2.52 2 2.76.76.87V61.3a3.31 3.31 0 0 0 1.64 2.85l14.91 8.61.15.83 3 4.26 4.68-2.75a1.51 1.51 0 0 0 .71-1.28v-24a3.41 3.41 0 0 0-1.57-2.99z" class="cls-33"/>
                    <path d="M39.88 49.57L19.73 37.94a1.48 1.48 0 0 0-2.22 1.28v24.12a3.3 3.3 0 0 0 1.65 2.85l20.15 11.64a1.5 1.5 0 0 0 2.26-1.31v-24a3.37 3.37 0 0 0-1.69-2.95z" class="cls-28"/>
                    <g>
                        <path d="M40.81 77.84z" class="cls-3"/>
                        <path d="M41.57 76.52v-24a3.24 3.24 0 0 0-.23-1.16l4.66-2.7a3.42 3.42 0 0 1 .21 1.11v24a1.51 1.51 0 0 1-.71 1.28l-4.64 2.73a1.49 1.49 0 0 0 .71-1.26z" class="cls-34"/>
                    </g>
                </g>
                <g>
                    <path d="M35.77 52L15.86 40.45a1.89 1.89 0 0 0-2 .08l-4.37 2.53 2 2.75.75.87v19.73a3.29 3.29 0 0 0 1.65 2.85l14.9 8.62.15.83L32 83l4.67-2.75a1.49 1.49 0 0 0 .71-1.29v-24A3.36 3.36 0 0 0 35.77 52z" class="cls-35"/>
                    <path d="M31.12 54.68L11 43.06a1.47 1.47 0 0 0-2.21 1.27v24.12a3.28 3.28 0 0 0 1.61 2.85L30.55 83a1.51 1.51 0 0 0 2.27-1.31v-24a3.41 3.41 0 0 0-1.7-3.01z" class="cls-36"/>
                    <g>
                        <path d="M32.06 83z" class="cls-3"/>
                        <path d="M32.82 81.64v-24a3.41 3.41 0 0 0-.23-1.15l4.67-2.7a3.27 3.27 0 0 1 .21 1.12v24a1.49 1.49 0 0 1-.71 1.29L32.07 83a1.53 1.53 0 0 0 .75-1.36z" class="cls-37"/>
                    </g>
                </g>
                <g>
                    <path d="M27 57.06L7.1 45.57a1.89 1.89 0 0 0-2 .08L.73 48.17l2 2.76.76.87v19.73a3.28 3.28 0 0 0 1.64 2.85L20.07 83l.16.83 3 4.26L28 85.34a1.5 1.5 0 0 0 .72-1.34V60A3.41 3.41 0 0 0 27 57.06z" class="cls-2"/>
                    <path d="M22.36 59.8L2.21 48.17A1.48 1.48 0 0 0 0 49.45v24.12a3.3 3.3 0 0 0 1.64 2.85l20.15 11.65a1.52 1.52 0 0 0 2.27-1.31v-24a3.41 3.41 0 0 0-1.7-2.96z" class="cls-3"/>
                    <g>
                        <path d="M23.3 88.07z" class="cls-3"/>
                        <path d="M24.06 86.76v-24a3.24 3.24 0 0 0-.23-1.16l4.67-2.69a3.23 3.23 0 0 1 .22 1.09v24a1.5 1.5 0 0 1-.72 1.3l-4.64 2.72a1.48 1.48 0 0 0 .7-1.26z" class="cls-4"/>
                    </g>
                </g>
                <g>
                    <path d="M4.79 59.72L2.34 58.3v8.82l1.62.94v-3.13l.7.4a2.72 2.72 0 0 0 2.2.52c.52-.21.78-.78.78-1.73a4.29 4.29 0 0 0-.72-2.48 6.12 6.12 0 0 0-2.13-1.92zM5.61 64c-.24.09-.62 0-1.12-.31l-.49-.3v-2.61l.74.42a2.75 2.75 0 0 1 1 .88A2.12 2.12 0 0 1 6 63.24c0 .43-.14.69-.39.76z" class="cls-38"/>
                    <path d="M13.31 68.1l-3.03-1.75.01-3.46-1.63-.94-.03 8.82 1.63.94.01-3.81 3.04 1.76-.01 3.8 1.62.94.03-8.82-1.63-.94-.01 3.46z" class="cls-39"/>
                    <path d="M21 69.78a6.13 6.13 0 0 0-2.13-1.91l-2.45-1.42v8.82l1.62.94v-3.14l.7.41A2.68 2.68 0 0 0 21 74c.52-.2.78-.78.78-1.73a4.38 4.38 0 0 0-.78-2.49zm-1.3 2.38a1.56 1.56 0 0 1-1.13-.31l-.53-.31v-2.62l.75.43a2.8 2.8 0 0 1 1 .88 2.08 2.08 0 0 1 .31 1.15c0 .44-.1.69-.37.78z" class="cls-40"/>
                </g>
                <g>
                    <path d="M57.71 49a.8.8 0 0 1-.14.56q-.14.14-.42 0a2.4 2.4 0 0 1-.44-.33v1a2.66 2.66 0 0 0 .59.44 1.09 1.09 0 0 0 .71.19.64.64 0 0 0 .49-.38 2 2 0 0 0 .17-.91v-5.74l-1-.56zM60.39 49.2l1.34.77.27 1.67 1 .55-1.28-6.69-1.3-.75L59.13 50l1 .56zm.61-2.57c0-.26.09-.49.12-.71 0 .12 0 .37.1.74s.1.6.11.69l.27 1.54-1-.56c.18-.89.3-1.45.4-1.7zM65.32 53.54l1.23-5.23-1-.55L64.9 51c-.07.35-.14.76-.19 1.22-.06-.61-.11-1.09-.17-1.43l-.67-4-1-.56 1.19 6.62zM67.39 54.74l.3-1.32 1.35.77.29 1.67 1 .55L69 49.72 67.73 49l-1.3 5.21zm.87-3.9c0-.25.09-.48.12-.7 0 .12 0 .37.1.74s.09.6.11.69l.27 1.54-1-.56c.23-.89.35-1.45.4-1.71zM66.41 56.8l-7.28-4.22v.37l7.28 4.22v-.37zM59.13 53.68l11.16 6.46v-.37l-11.16-6.46v.37zM66.89 57.44l3.4 1.97v-.37l-3.4-1.97v.37zM66.41 58.22L59.13 54v.37l7.28 4.22v-.37zM59.13 55.1l11.16 6.46v-.37l-11.16-6.46v.37zM66.89 58.86l3.4 1.97v-.37l-3.4-1.97v.37zM66.41 60.27l-7.28-4.22v.37l7.28 4.22v-.37zM59.13 57.15l11.16 6.46v-.37l-11.16-6.46v.37zM66.89 60.91l3.4 1.97v-.37l-3.4-1.97v.37zM66.41 61.69l-7.28-4.22v.37l7.28 4.22v-.37zM59.13 58.57l11.16 6.46v-.37L59.13 58.2v.37zM66.89 62.33l3.4 1.97v-.37l-3.4-1.97v.37zM66.41 63.74l-7.28-4.22v.37l7.28 4.22v-.37zM59.13 60.62l11.16 6.46v-.37l-11.16-6.46v.37zM66.89 64.38l3.4 1.97v-.37l-3.4-1.97v.37zM66.41 65.16l-7.28-4.22v.37l7.28 4.22v-.37zM59.13 62.04l11.16 6.46v-.37l-11.16-6.46v.37zM66.89 65.8l3.4 1.97v-.37l-3.4-1.97v.37zM66.41 67.2l-7.28-4.21v.37l7.28 4.22v-.38zM59.13 64.09l11.16 6.46v-.37l-11.16-6.46v.37zM66.89 67.85l3.4 1.97v-.37l-3.4-1.97v.37zM66.41 68.62l-7.28-4.21v.37l7.28 4.21v-.37zM59.13 65.5l11.16 6.47v-.38l-11.16-6.45v.36zM66.89 69.27l3.4 1.97v-.37l-3.4-1.97v.37z" class="cls-2"/>
                </g>
            </g>
        </g>
    </g>
</svg>
